<svg xmlns="http://www.w3.org/2000/svg" width="1313" height="100" viewBox="0 0 1313 100">
    <path fill="#4DA1FF" fill-rule="evenodd" stroke="#52A3FC" d="M3.44 98.174c0 .312-.11.578-.329.797-.219.219-.49.328-.815.328-.324 0-.594-.109-.81-.328a1.092 1.092 0 0 1-.324-.797c0-.312.108-.577.324-.796.216-.219.486-.329.81-.329.324 0 .596.11.815.329.219.219.328.484.328.796zm22 0c0 .312-.11.578-.329.797-.219.219-.49.328-.815.328-.324 0-.594-.109-.81-.328a1.092 1.092 0 0 1-.324-.797c0-.312.108-.577.324-.796.216-.219.486-.329.81-.329.324 0 .596.11.815.329.219.219.328.484.328.796zm0-19.276c0 .313-.11.578-.329.797-.219.219-.49.328-.815.328-.324 0-.594-.109-.81-.328a1.092 1.092 0 0 1-.324-.797c0-.312.108-.577.324-.796.216-.219.486-.329.81-.329.324 0 .596.11.815.329.219.219.328.484.328.796zm22 19.276c0 .312-.11.578-.329.797-.219.219-.49.328-.815.328-.324 0-.594-.109-.81-.328a1.092 1.092 0 0 1-.324-.797c0-.312.108-.577.324-.796.216-.219.486-.329.81-.329.324 0 .596.11.815.329.219.219.328.484.328.796zm0-19.276c0 .313-.11.578-.329.797-.219.219-.49.328-.815.328-.324 0-.594-.109-.81-.328a1.092 1.092 0 0 1-.324-.797c0-.312.108-.577.324-.796.216-.219.486-.329.81-.329.324 0 .596.11.815.329.219.219.328.484.328.796zm22 19.276c0 .312-.11.578-.329.797-.219.219-.49.328-.815.328-.324 0-.594-.109-.81-.328a1.092 1.092 0 0 1-.324-.797c0-.312.108-.577.324-.796.216-.219.486-.329.81-.329.324 0 .596.11.815.329.219.219.328.484.328.796zm0-19.276c0 .313-.11.578-.329.797-.219.219-.49.328-.815.328-.324 0-.594-.109-.81-.328a1.092 1.092 0 0 1-.324-.797c0-.312.108-.577.324-.796.216-.219.486-.329.81-.329.324 0 .596.11.815.329.219.219.328.484.328.796zm0-19.276c0 .313-.11.578-.329.797-.219.219-.49.328-.815.328-.324 0-.594-.109-.81-.328a1.092 1.092 0 0 1-.324-.797c0-.312.108-.577.324-.796.216-.219.486-.329.81-.329.324 0 .596.11.815.329.219.219.328.484.328.796zm0-19.275c0 .312-.11.577-.329.796-.219.219-.49.329-.815.329-.324 0-.594-.11-.81-.329a1.092 1.092 0 0 1-.324-.796c0-.313.108-.578.324-.797.216-.219.486-.328.81-.328.324 0 .596.109.815.328.219.219.328.484.328.797zm22 57.827c0 .312-.11.578-.329.797-.219.219-.49.328-.815.328-.324 0-.594-.109-.81-.328a1.092 1.092 0 0 1-.324-.797c0-.312.108-.577.324-.796.216-.219.486-.329.81-.329.324 0 .596.11.815.329.219.219.328.484.328.796zm0-19.276c0 .313-.11.578-.329.797-.219.219-.49.328-.815.328-.324 0-.594-.109-.81-.328a1.092 1.092 0 0 1-.324-.797c0-.312.108-.577.324-.796.216-.219.486-.329.81-.329.324 0 .596.11.815.329.219.219.328.484.328.796zm22 19.276c0 .312-.11.578-.329.797-.219.219-.49.328-.815.328-.324 0-.594-.109-.81-.328a1.092 1.092 0 0 1-.324-.797c0-.312.108-.577.324-.796.216-.219.486-.329.81-.329.324 0 .596.11.815.329.219.219.328.484.328.796zm0-19.276c0 .313-.11.578-.329.797-.219.219-.49.328-.815.328-.324 0-.594-.109-.81-.328a1.092 1.092 0 0 1-.324-.797c0-.312.108-.577.324-.796.216-.219.486-.329.81-.329.324 0 .596.11.815.329.219.219.328.484.328.796zm0-19.276c0 .313-.11.578-.329.797-.219.219-.49.328-.815.328-.324 0-.594-.109-.81-.328a1.092 1.092 0 0 1-.324-.797c0-.312.108-.577.324-.796.216-.219.486-.329.81-.329.324 0 .596.11.815.329.219.219.328.484.328.796zm22 38.552c0 .312-.11.578-.329.797-.219.219-.49.328-.815.328-.324 0-.594-.109-.81-.328a1.092 1.092 0 0 1-.324-.797c0-.312.108-.577.324-.796.216-.219.486-.329.81-.329.324 0 .596.11.815.329.219.219.328.484.328.796zm0-19.276c0 .313-.11.578-.329.797-.219.219-.49.328-.815.328-.324 0-.594-.109-.81-.328a1.092 1.092 0 0 1-.324-.797c0-.312.108-.577.324-.796.216-.219.486-.329.81-.329.324 0 .596.11.815.329.219.219.328.484.328.796zm22 19.276c0 .312-.11.578-.329.797-.219.219-.49.328-.815.328-.324 0-.594-.109-.81-.328a1.092 1.092 0 0 1-.324-.797c0-.312.108-.577.324-.796.216-.219.486-.329.81-.329.324 0 .596.11.815.329.219.219.328.484.328.796zm0-19.276c0 .313-.11.578-.329.797-.219.219-.49.328-.815.328-.324 0-.594-.109-.81-.328a1.092 1.092 0 0 1-.324-.797c0-.312.108-.577.324-.796.216-.219.486-.329.81-.329.324 0 .596.11.815.329.219.219.328.484.328.796zm0-19.276c0 .313-.11.578-.329.797-.219.219-.49.328-.815.328-.324 0-.594-.109-.81-.328a1.092 1.092 0 0 1-.324-.797c0-.312.108-.577.324-.796.216-.219.486-.329.81-.329.324 0 .596.11.815.329.219.219.328.484.328.796zm33 38.552c0 .312-.11.578-.329.797-.219.219-.49.328-.815.328-.324 0-.594-.109-.81-.328a1.092 1.092 0 0 1-.324-.797c0-.312.108-.577.324-.796.216-.219.486-.329.81-.329.324 0 .596.11.815.329.219.219.328.484.328.796zm0-19.276c0 .313-.11.578-.329.797-.219.219-.49.328-.815.328-.324 0-.594-.109-.81-.328a1.092 1.092 0 0 1-.324-.797c0-.312.108-.577.324-.796.216-.219.486-.329.81-.329.324 0 .596.11.815.329.219.219.328.484.328.796zm0-19.276c0 .313-.11.578-.329.797-.219.219-.49.328-.815.328-.324 0-.594-.109-.81-.328a1.092 1.092 0 0 1-.324-.797c0-.312.108-.577.324-.796.216-.219.486-.329.81-.329.324 0 .596.11.815.329.219.219.328.484.328.796zm22 38.552c0 .312-.11.578-.329.797-.219.219-.49.328-.815.328-.324 0-.594-.109-.81-.328a1.092 1.092 0 0 1-.324-.797c0-.312.108-.577.324-.796.216-.219.486-.329.81-.329.324 0 .596.11.815.329.219.219.328.484.328.796zm22 0c0 .312-.11.578-.329.797-.219.219-.49.328-.815.328-.324 0-.594-.109-.81-.328a1.092 1.092 0 0 1-.324-.797c0-.312.108-.577.324-.796.216-.219.486-.329.81-.329.324 0 .596.11.815.329.219.219.328.484.328.796zm0-19.276c0 .313-.11.578-.329.797-.219.219-.49.328-.815.328-.324 0-.594-.109-.81-.328a1.092 1.092 0 0 1-.324-.797c0-.312.108-.577.324-.796.216-.219.486-.329.81-.329.324 0 .596.11.815.329.219.219.328.484.328.796zm22 19.276c0 .312-.11.578-.329.797-.219.219-.49.328-.815.328-.324 0-.594-.109-.81-.328a1.092 1.092 0 0 1-.324-.797c0-.312.108-.577.324-.796.216-.219.486-.329.81-.329.324 0 .596.11.815.329.219.219.328.484.328.796zm0-19.276c0 .313-.11.578-.329.797-.219.219-.49.328-.815.328-.324 0-.594-.109-.81-.328a1.092 1.092 0 0 1-.324-.797c0-.312.108-.577.324-.796.216-.219.486-.329.81-.329.324 0 .596.11.815.329.219.219.328.484.328.796zm22 19.276c0 .312-.11.578-.329.797-.219.219-.49.328-.815.328-.324 0-.594-.109-.81-.328a1.092 1.092 0 0 1-.324-.797c0-.312.108-.577.324-.796.216-.219.486-.329.81-.329.324 0 .596.11.815.329.219.219.328.484.328.796zm0-19.276c0 .313-.11.578-.329.797-.219.219-.49.328-.815.328-.324 0-.594-.109-.81-.328a1.092 1.092 0 0 1-.324-.797c0-.312.108-.577.324-.796.216-.219.486-.329.81-.329.324 0 .596.11.815.329.219.219.328.484.328.796zm22 19.276c0 .312-.11.578-.329.797-.219.219-.49.328-.815.328-.324 0-.594-.109-.81-.328a1.092 1.092 0 0 1-.324-.797c0-.312.108-.577.324-.796.216-.219.486-.329.81-.329.324 0 .596.11.815.329.219.219.328.484.328.796zm0-19.276c0 .313-.11.578-.329.797-.219.219-.49.328-.815.328-.324 0-.594-.109-.81-.328a1.092 1.092 0 0 1-.324-.797c0-.312.108-.577.324-.796.216-.219.486-.329.81-.329.324 0 .596.11.815.329.219.219.328.484.328.796zm0-19.276c0 .313-.11.578-.329.797-.219.219-.49.328-.815.328-.324 0-.594-.109-.81-.328a1.092 1.092 0 0 1-.324-.797c0-.312.108-.577.324-.796.216-.219.486-.329.81-.329.324 0 .596.11.815.329.219.219.328.484.328.796zm22 38.552c0 .312-.11.578-.329.797-.219.219-.49.328-.815.328-.324 0-.594-.109-.81-.328a1.092 1.092 0 0 1-.324-.797c0-.312.108-.577.324-.796.216-.219.486-.329.81-.329.324 0 .596.11.815.329.219.219.328.484.328.796zm0-19.276c0 .313-.11.578-.329.797-.219.219-.49.328-.815.328-.324 0-.594-.109-.81-.328a1.092 1.092 0 0 1-.324-.797c0-.312.108-.577.324-.796.216-.219.486-.329.81-.329.324 0 .596.11.815.329.219.219.328.484.328.796zm22 19.276c0 .312-.11.578-.329.797-.219.219-.49.328-.815.328-.324 0-.594-.109-.81-.328a1.092 1.092 0 0 1-.324-.797c0-.312.108-.577.324-.796.216-.219.486-.329.81-.329.324 0 .596.11.815.329.219.219.328.484.328.796zm0-19.276c0 .313-.11.578-.329.797-.219.219-.49.328-.815.328-.324 0-.594-.109-.81-.328a1.092 1.092 0 0 1-.324-.797c0-.312.108-.577.324-.796.216-.219.486-.329.81-.329.324 0 .596.11.815.329.219.219.328.484.328.796zm0-19.276c0 .313-.11.578-.329.797-.219.219-.49.328-.815.328-.324 0-.594-.109-.81-.328a1.092 1.092 0 0 1-.324-.797c0-.312.108-.577.324-.796.216-.219.486-.329.81-.329.324 0 .596.11.815.329.219.219.328.484.328.796zm0-19.275c0 .312-.11.577-.329.796-.219.219-.49.329-.815.329-.324 0-.594-.11-.81-.329a1.092 1.092 0 0 1-.324-.796c0-.313.108-.578.324-.797.216-.219.486-.328.81-.328.324 0 .596.109.815.328.219.219.328.484.328.797zm22 57.827c0 .312-.11.578-.329.797-.219.219-.49.328-.815.328-.324 0-.594-.109-.81-.328a1.092 1.092 0 0 1-.324-.797c0-.312.108-.577.324-.796.216-.219.486-.329.81-.329.324 0 .596.11.815.329.219.219.328.484.328.796zm0-19.276c0 .313-.11.578-.329.797-.219.219-.49.328-.815.328-.324 0-.594-.109-.81-.328a1.092 1.092 0 0 1-.324-.797c0-.312.108-.577.324-.796.216-.219.486-.329.81-.329.324 0 .596.11.815.329.219.219.328.484.328.796zm0-19.276c0 .313-.11.578-.329.797-.219.219-.49.328-.815.328-.324 0-.594-.109-.81-.328a1.092 1.092 0 0 1-.324-.797c0-.312.108-.577.324-.796.216-.219.486-.329.81-.329.324 0 .596.11.815.329.219.219.328.484.328.796zm22 38.552c0 .312-.11.578-.329.797-.219.219-.49.328-.815.328-.324 0-.594-.109-.81-.328a1.092 1.092 0 0 1-.324-.797c0-.312.108-.577.324-.796.216-.219.486-.329.81-.329.324 0 .596.11.815.329.219.219.328.484.328.796zm0-19.276c0 .313-.11.578-.329.797-.219.219-.49.328-.815.328-.324 0-.594-.109-.81-.328a1.092 1.092 0 0 1-.324-.797c0-.312.108-.577.324-.796.216-.219.486-.329.81-.329.324 0 .596.11.815.329.219.219.328.484.328.796zm0-19.276c0 .313-.11.578-.329.797-.219.219-.49.328-.815.328-.324 0-.594-.109-.81-.328a1.092 1.092 0 0 1-.324-.797c0-.312.108-.577.324-.796.216-.219.486-.329.81-.329.324 0 .596.11.815.329.219.219.328.484.328.796zm0-19.275c0 .312-.11.577-.329.796-.219.219-.49.329-.815.329-.324 0-.594-.11-.81-.329a1.092 1.092 0 0 1-.324-.796c0-.313.108-.578.324-.797.216-.219.486-.328.81-.328.324 0 .596.109.815.328.219.219.328.484.328.797zm22 57.827c0 .312-.11.578-.329.797-.219.219-.49.328-.815.328-.324 0-.594-.109-.81-.328a1.092 1.092 0 0 1-.324-.797c0-.312.108-.577.324-.796.216-.219.486-.329.81-.329.324 0 .596.11.815.329.219.219.328.484.328.796zm0-19.276c0 .313-.11.578-.329.797-.219.219-.49.328-.815.328-.324 0-.594-.109-.81-.328a1.092 1.092 0 0 1-.324-.797c0-.312.108-.577.324-.796.216-.219.486-.329.81-.329.324 0 .596.11.815.329.219.219.328.484.328.796zm0-19.276c0 .313-.11.578-.329.797-.219.219-.49.328-.815.328-.324 0-.594-.109-.81-.328a1.092 1.092 0 0 1-.324-.797c0-.312.108-.577.324-.796.216-.219.486-.329.81-.329.324 0 .596.11.815.329.219.219.328.484.328.796zm0-19.275c0 .312-.11.577-.329.796-.219.219-.49.329-.815.329-.324 0-.594-.11-.81-.329a1.092 1.092 0 0 1-.324-.796c0-.313.108-.578.324-.797.216-.219.486-.328.81-.328.324 0 .596.109.815.328.219.219.328.484.328.797zm0-19.276c0 .312-.11.577-.329.796-.219.219-.49.329-.815.329-.324 0-.594-.11-.81-.329a1.092 1.092 0 0 1-.324-.796c0-.313.108-.578.324-.797.216-.219.486-.328.81-.328.324 0 .596.109.815.328.219.219.328.484.328.797zm22 77.103c0 .312-.11.578-.329.797-.219.219-.49.328-.815.328-.324 0-.594-.109-.81-.328a1.092 1.092 0 0 1-.324-.797c0-.312.108-.577.324-.796.216-.219.486-.329.81-.329.324 0 .596.11.815.329.219.219.328.484.328.796zm0-19.276c0 .313-.11.578-.329.797-.219.219-.49.328-.815.328-.324 0-.594-.109-.81-.328a1.092 1.092 0 0 1-.324-.797c0-.312.108-.577.324-.796.216-.219.486-.329.81-.329.324 0 .596.11.815.329.219.219.328.484.328.796zm0-19.276c0 .313-.11.578-.329.797-.219.219-.49.328-.815.328-.324 0-.594-.109-.81-.328a1.092 1.092 0 0 1-.324-.797c0-.312.108-.577.324-.796.216-.219.486-.329.81-.329.324 0 .596.11.815.329.219.219.328.484.328.796zm22 38.552c0 .312-.11.578-.329.797-.219.219-.49.328-.815.328-.324 0-.594-.109-.81-.328a1.092 1.092 0 0 1-.324-.797c0-.312.108-.577.324-.796.216-.219.486-.329.81-.329.324 0 .596.11.815.329.219.219.328.484.328.796zm0-19.276c0 .313-.11.578-.329.797-.219.219-.49.328-.815.328-.324 0-.594-.109-.81-.328a1.092 1.092 0 0 1-.324-.797c0-.312.108-.577.324-.796.216-.219.486-.329.81-.329.324 0 .596.11.815.329.219.219.328.484.328.796zm22 19.276c0 .312-.11.578-.329.797-.219.219-.49.328-.815.328-.324 0-.594-.109-.81-.328a1.092 1.092 0 0 1-.324-.797c0-.312.108-.577.324-.796.216-.219.486-.329.81-.329.324 0 .596.11.815.329.219.219.328.484.328.796zm0-19.276c0 .313-.11.578-.329.797-.219.219-.49.328-.815.328-.324 0-.594-.109-.81-.328a1.092 1.092 0 0 1-.324-.797c0-.312.108-.577.324-.796.216-.219.486-.329.81-.329.324 0 .596.11.815.329.219.219.328.484.328.796zm0-19.276c0 .313-.11.578-.329.797-.219.219-.49.328-.815.328-.324 0-.594-.109-.81-.328a1.092 1.092 0 0 1-.324-.797c0-.312.108-.577.324-.796.216-.219.486-.329.81-.329.324 0 .596.11.815.329.219.219.328.484.328.796zm22 38.552c0 .312-.11.578-.329.797-.219.219-.49.328-.815.328-.324 0-.594-.109-.81-.328a1.092 1.092 0 0 1-.324-.797c0-.312.108-.577.324-.796.216-.219.486-.329.81-.329.324 0 .596.11.815.329.219.219.328.484.328.796zm0-19.276c0 .313-.11.578-.329.797-.219.219-.49.328-.815.328-.324 0-.594-.109-.81-.328a1.092 1.092 0 0 1-.324-.797c0-.312.108-.577.324-.796.216-.219.486-.329.81-.329.324 0 .596.11.815.329.219.219.328.484.328.796zm0-19.276c0 .313-.11.578-.329.797-.219.219-.49.328-.815.328-.324 0-.594-.109-.81-.328a1.092 1.092 0 0 1-.324-.797c0-.312.108-.577.324-.796.216-.219.486-.329.81-.329.324 0 .596.11.815.329.219.219.328.484.328.796zm22 38.552c0 .312-.11.578-.329.797-.219.219-.49.328-.815.328-.324 0-.594-.109-.81-.328a1.092 1.092 0 0 1-.324-.797c0-.312.108-.577.324-.796.216-.219.486-.329.81-.329.324 0 .596.11.815.329.219.219.328.484.328.796zm0-19.276c0 .313-.11.578-.329.797-.219.219-.49.328-.815.328-.324 0-.594-.109-.81-.328a1.092 1.092 0 0 1-.324-.797c0-.312.108-.577.324-.796.216-.219.486-.329.81-.329.324 0 .596.11.815.329.219.219.328.484.328.796zm0-19.276c0 .313-.11.578-.329.797-.219.219-.49.328-.815.328-.324 0-.594-.109-.81-.328a1.092 1.092 0 0 1-.324-.797c0-.312.108-.577.324-.796.216-.219.486-.329.81-.329.324 0 .596.11.815.329.219.219.328.484.328.796zm0-19.275c0 .312-.11.577-.329.796-.219.219-.49.329-.815.329-.324 0-.594-.11-.81-.329a1.092 1.092 0 0 1-.324-.796c0-.313.108-.578.324-.797.216-.219.486-.328.81-.328.324 0 .596.109.815.328.219.219.328.484.328.797zm22 57.827c0 .312-.11.578-.329.797-.219.219-.49.328-.815.328-.324 0-.594-.109-.81-.328a1.092 1.092 0 0 1-.324-.797c0-.312.108-.577.324-.796.216-.219.486-.329.81-.329.324 0 .596.11.815.329.219.219.328.484.328.796zm0-19.276c0 .313-.11.578-.329.797-.219.219-.49.328-.815.328-.324 0-.594-.109-.81-.328a1.092 1.092 0 0 1-.324-.797c0-.312.108-.577.324-.796.216-.219.486-.329.81-.329.324 0 .596.11.815.329.219.219.328.484.328.796zm22 19.276c0 .312-.11.578-.329.797-.219.219-.49.328-.815.328-.324 0-.594-.109-.81-.328a1.092 1.092 0 0 1-.324-.797c0-.312.108-.577.324-.796.216-.219.486-.329.81-.329.324 0 .596.11.815.329.219.219.328.484.328.796zm0-19.276c0 .313-.11.578-.329.797-.219.219-.49.328-.815.328-.324 0-.594-.109-.81-.328a1.092 1.092 0 0 1-.324-.797c0-.312.108-.577.324-.796.216-.219.486-.329.81-.329.324 0 .596.11.815.329.219.219.328.484.328.796zm0-19.276c0 .313-.11.578-.329.797-.219.219-.49.328-.815.328-.324 0-.594-.109-.81-.328a1.092 1.092 0 0 1-.324-.797c0-.312.108-.577.324-.796.216-.219.486-.329.81-.329.324 0 .596.11.815.329.219.219.328.484.328.796zm0-19.275c0 .312-.11.577-.329.796-.219.219-.49.329-.815.329-.324 0-.594-.11-.81-.329a1.092 1.092 0 0 1-.324-.796c0-.313.108-.578.324-.797.216-.219.486-.328.81-.328.324 0 .596.109.815.328.219.219.328.484.328.797zm22 57.827c0 .312-.11.578-.329.797-.219.219-.49.328-.815.328-.324 0-.594-.109-.81-.328a1.092 1.092 0 0 1-.324-.797c0-.312.108-.577.324-.796.216-.219.486-.329.81-.329.324 0 .596.11.815.329.219.219.328.484.328.796zm0-19.276c0 .313-.11.578-.329.797-.219.219-.49.328-.815.328-.324 0-.594-.109-.81-.328a1.092 1.092 0 0 1-.324-.797c0-.312.108-.577.324-.796.216-.219.486-.329.81-.329.324 0 .596.11.815.329.219.219.328.484.328.796zm0-19.276c0 .313-.11.578-.329.797-.219.219-.49.328-.815.328-.324 0-.594-.109-.81-.328a1.092 1.092 0 0 1-.324-.797c0-.312.108-.577.324-.796.216-.219.486-.329.81-.329.324 0 .596.11.815.329.219.219.328.484.328.796zm22 38.552c0 .312-.11.578-.329.797-.219.219-.49.328-.815.328-.324 0-.594-.109-.81-.328a1.092 1.092 0 0 1-.324-.797c0-.312.108-.577.324-.796.216-.219.486-.329.81-.329.324 0 .596.11.815.329.219.219.328.484.328.796zm0-19.276c0 .313-.11.578-.329.797-.219.219-.49.328-.815.328-.324 0-.594-.109-.81-.328a1.092 1.092 0 0 1-.324-.797c0-.312.108-.577.324-.796.216-.219.486-.329.81-.329.324 0 .596.11.815.329.219.219.328.484.328.796zm22 19.276c0 .312-.11.578-.329.797-.219.219-.49.328-.815.328-.324 0-.594-.109-.81-.328a1.092 1.092 0 0 1-.324-.797c0-.312.108-.577.324-.796.216-.219.486-.329.81-.329.324 0 .596.11.815.329.219.219.328.484.328.796zm22 0c0 .312-.11.578-.329.797-.219.219-.49.328-.815.328-.324 0-.594-.109-.81-.328a1.092 1.092 0 0 1-.324-.797c0-.312.108-.577.324-.796.216-.219.486-.329.81-.329.324 0 .596.11.815.329.219.219.328.484.328.796zm0-19.276c0 .313-.11.578-.329.797-.219.219-.49.328-.815.328-.324 0-.594-.109-.81-.328a1.092 1.092 0 0 1-.324-.797c0-.312.108-.577.324-.796.216-.219.486-.329.81-.329.324 0 .596.11.815.329.219.219.328.484.328.796zm0-19.276c0 .313-.11.578-.329.797-.219.219-.49.328-.815.328-.324 0-.594-.109-.81-.328a1.092 1.092 0 0 1-.324-.797c0-.312.108-.577.324-.796.216-.219.486-.329.81-.329.324 0 .596.11.815.329.219.219.328.484.328.796zm0-19.275c0 .312-.11.577-.329.796-.219.219-.49.329-.815.329-.324 0-.594-.11-.81-.329a1.092 1.092 0 0 1-.324-.796c0-.313.108-.578.324-.797.216-.219.486-.328.81-.328.324 0 .596.109.815.328.219.219.328.484.328.797zm22 57.827c0 .312-.11.578-.329.797-.219.219-.49.328-.815.328-.324 0-.594-.109-.81-.328a1.092 1.092 0 0 1-.324-.797c0-.312.108-.577.324-.796.216-.219.486-.329.81-.329.324 0 .596.11.815.329.219.219.328.484.328.796zm0-19.276c0 .313-.11.578-.329.797-.219.219-.49.328-.815.328-.324 0-.594-.109-.81-.328a1.092 1.092 0 0 1-.324-.797c0-.312.108-.577.324-.796.216-.219.486-.329.81-.329.324 0 .596.11.815.329.219.219.328.484.328.796zm0-19.276c0 .313-.11.578-.329.797-.219.219-.49.328-.815.328-.324 0-.594-.109-.81-.328a1.092 1.092 0 0 1-.324-.797c0-.312.108-.577.324-.796.216-.219.486-.329.81-.329.324 0 .596.11.815.329.219.219.328.484.328.796zm0-19.275c0 .312-.11.577-.329.796-.219.219-.49.329-.815.329-.324 0-.594-.11-.81-.329a1.092 1.092 0 0 1-.324-.796c0-.313.108-.578.324-.797.216-.219.486-.328.81-.328.324 0 .596.109.815.328.219.219.328.484.328.797zm0-19.276c0 .312-.11.577-.329.796-.219.219-.49.329-.815.329-.324 0-.594-.11-.81-.329a1.092 1.092 0 0 1-.324-.796c0-.313.108-.578.324-.797.216-.219.486-.328.81-.328.324 0 .596.109.815.328.219.219.328.484.328.797zm22 77.103c0 .312-.11.578-.329.797-.219.219-.49.328-.815.328-.324 0-.594-.109-.81-.328a1.092 1.092 0 0 1-.324-.797c0-.312.108-.577.324-.796.216-.219.486-.329.81-.329.324 0 .596.11.815.329.219.219.328.484.328.796zm0-19.276c0 .313-.11.578-.329.797-.219.219-.49.328-.815.328-.324 0-.594-.109-.81-.328a1.092 1.092 0 0 1-.324-.797c0-.312.108-.577.324-.796.216-.219.486-.329.81-.329.324 0 .596.11.815.329.219.219.328.484.328.796zm0-19.276c0 .313-.11.578-.329.797-.219.219-.49.328-.815.328-.324 0-.594-.109-.81-.328a1.092 1.092 0 0 1-.324-.797c0-.312.108-.577.324-.796.216-.219.486-.329.81-.329.324 0 .596.11.815.329.219.219.328.484.328.796zm22 38.552c0 .312-.11.578-.329.797-.219.219-.49.328-.815.328-.324 0-.594-.109-.81-.328a1.092 1.092 0 0 1-.324-.797c0-.312.108-.577.324-.796.216-.219.486-.329.81-.329.324 0 .596.11.815.329.219.219.328.484.328.796zm0-19.276c0 .313-.11.578-.329.797-.219.219-.49.328-.815.328-.324 0-.594-.109-.81-.328a1.092 1.092 0 0 1-.324-.797c0-.312.108-.577.324-.796.216-.219.486-.329.81-.329.324 0 .596.11.815.329.219.219.328.484.328.796zm0-19.276c0 .313-.11.578-.329.797-.219.219-.49.328-.815.328-.324 0-.594-.109-.81-.328a1.092 1.092 0 0 1-.324-.797c0-.312.108-.577.324-.796.216-.219.486-.329.81-.329.324 0 .596.11.815.329.219.219.328.484.328.796zm0-19.275c0 .312-.11.577-.329.796-.219.219-.49.329-.815.329-.324 0-.594-.11-.81-.329a1.092 1.092 0 0 1-.324-.796c0-.313.108-.578.324-.797.216-.219.486-.328.81-.328.324 0 .596.109.815.328.219.219.328.484.328.797zm22 57.827c0 .312-.11.578-.329.797-.219.219-.49.328-.815.328-.324 0-.594-.109-.81-.328a1.092 1.092 0 0 1-.324-.797c0-.312.108-.577.324-.796.216-.219.486-.329.81-.329.324 0 .596.11.815.329.219.219.328.484.328.796zm0-19.276c0 .313-.11.578-.329.797-.219.219-.49.328-.815.328-.324 0-.594-.109-.81-.328a1.092 1.092 0 0 1-.324-.797c0-.312.108-.577.324-.796.216-.219.486-.329.81-.329.324 0 .596.11.815.329.219.219.328.484.328.796zm22 19.276c0 .312-.11.578-.329.797-.219.219-.49.328-.815.328-.324 0-.594-.109-.81-.328a1.092 1.092 0 0 1-.324-.797c0-.312.108-.577.324-.796.216-.219.486-.329.81-.329.324 0 .596.11.815.329.219.219.328.484.328.796zm0-19.276c0 .313-.11.578-.329.797-.219.219-.49.328-.815.328-.324 0-.594-.109-.81-.328a1.092 1.092 0 0 1-.324-.797c0-.312.108-.577.324-.796.216-.219.486-.329.81-.329.324 0 .596.11.815.329.219.219.328.484.328.796zm0-19.276c0 .313-.11.578-.329.797-.219.219-.49.328-.815.328-.324 0-.594-.109-.81-.328a1.092 1.092 0 0 1-.324-.797c0-.312.108-.577.324-.796.216-.219.486-.329.81-.329.324 0 .596.11.815.329.219.219.328.484.328.796zm22 38.552c0 .312-.11.578-.329.797-.219.219-.49.328-.815.328-.324 0-.594-.109-.81-.328a1.092 1.092 0 0 1-.324-.797c0-.312.108-.577.324-.796.216-.219.486-.329.81-.329.324 0 .596.11.815.329.219.219.328.484.328.796zm0-19.276c0 .313-.11.578-.329.797-.219.219-.49.328-.815.328-.324 0-.594-.109-.81-.328a1.092 1.092 0 0 1-.324-.797c0-.312.108-.577.324-.796.216-.219.486-.329.81-.329.324 0 .596.11.815.329.219.219.328.484.328.796zm0-19.276c0 .313-.11.578-.329.797-.219.219-.49.328-.815.328-.324 0-.594-.109-.81-.328a1.092 1.092 0 0 1-.324-.797c0-.312.108-.577.324-.796.216-.219.486-.329.81-.329.324 0 .596.11.815.329.219.219.328.484.328.796zm0-19.275c0 .312-.11.577-.329.796-.219.219-.49.329-.815.329-.324 0-.594-.11-.81-.329a1.092 1.092 0 0 1-.324-.796c0-.313.108-.578.324-.797.216-.219.486-.328.81-.328.324 0 .596.109.815.328.219.219.328.484.328.797zm22 57.827c0 .312-.11.578-.329.797-.219.219-.49.328-.815.328-.324 0-.594-.109-.81-.328a1.092 1.092 0 0 1-.324-.797c0-.312.108-.577.324-.796.216-.219.486-.329.81-.329.324 0 .596.11.815.329.219.219.328.484.328.796zm0-19.276c0 .313-.11.578-.329.797-.219.219-.49.328-.815.328-.324 0-.594-.109-.81-.328a1.092 1.092 0 0 1-.324-.797c0-.312.108-.577.324-.796.216-.219.486-.329.81-.329.324 0 .596.11.815.329.219.219.328.484.328.796zm22 19.276c0 .312-.11.578-.329.797-.219.219-.49.328-.815.328-.324 0-.594-.109-.81-.328a1.092 1.092 0 0 1-.324-.797c0-.312.108-.577.324-.796.216-.219.486-.329.81-.329.324 0 .596.11.815.329.219.219.328.484.328.796zm0-19.276c0 .313-.11.578-.329.797-.219.219-.49.328-.815.328-.324 0-.594-.109-.81-.328a1.092 1.092 0 0 1-.324-.797c0-.312.108-.577.324-.796.216-.219.486-.329.81-.329.324 0 .596.11.815.329.219.219.328.484.328.796zm0-19.276c0 .313-.11.578-.329.797-.219.219-.49.328-.815.328-.324 0-.594-.109-.81-.328a1.092 1.092 0 0 1-.324-.797c0-.312.108-.577.324-.796.216-.219.486-.329.81-.329.324 0 .596.11.815.329.219.219.328.484.328.796zm22 38.552c0 .312-.11.578-.329.797-.219.219-.49.328-.815.328-.324 0-.594-.109-.81-.328a1.092 1.092 0 0 1-.324-.797c0-.312.108-.577.324-.796.216-.219.486-.329.81-.329.324 0 .596.11.815.329.219.219.328.484.328.796zm0-19.276c0 .313-.11.578-.329.797-.219.219-.49.328-.815.328-.324 0-.594-.109-.81-.328a1.092 1.092 0 0 1-.324-.797c0-.312.108-.577.324-.796.216-.219.486-.329.81-.329.324 0 .596.11.815.329.219.219.328.484.328.796zm22 19.276c0 .312-.11.578-.329.797-.219.219-.49.328-.815.328-.324 0-.594-.109-.81-.328a1.092 1.092 0 0 1-.324-.797c0-.312.108-.577.324-.796.216-.219.486-.329.81-.329.324 0 .596.11.815.329.219.219.328.484.328.796zm22 0c0 .312-.11.578-.329.797-.219.219-.49.328-.815.328-.324 0-.594-.109-.81-.328a1.092 1.092 0 0 1-.324-.797c0-.312.108-.577.324-.796.216-.219.486-.329.81-.329.324 0 .596.11.815.329.219.219.328.484.328.796zm0-19.276c0 .313-.11.578-.329.797-.219.219-.49.328-.815.328-.324 0-.594-.109-.81-.328a1.092 1.092 0 0 1-.324-.797c0-.312.108-.577.324-.796.216-.219.486-.329.81-.329.324 0 .596.11.815.329.219.219.328.484.328.796zm0-19.276c0 .313-.11.578-.329.797-.219.219-.49.328-.815.328-.324 0-.594-.109-.81-.328a1.092 1.092 0 0 1-.324-.797c0-.312.108-.577.324-.796.216-.219.486-.329.81-.329.324 0 .596.11.815.329.219.219.328.484.328.796zm0-19.275c0 .312-.11.577-.329.796-.219.219-.49.329-.815.329-.324 0-.594-.11-.81-.329a1.092 1.092 0 0 1-.324-.796c0-.313.108-.578.324-.797.216-.219.486-.328.81-.328.324 0 .596.109.815.328.219.219.328.484.328.797zm22 57.827c0 .312-.11.578-.329.797-.219.219-.49.328-.815.328-.324 0-.594-.109-.81-.328a1.092 1.092 0 0 1-.324-.797c0-.312.108-.577.324-.796.216-.219.486-.329.81-.329.324 0 .596.11.815.329.219.219.328.484.328.796zm0-19.276c0 .313-.11.578-.329.797-.219.219-.49.328-.815.328-.324 0-.594-.109-.81-.328a1.092 1.092 0 0 1-.324-.797c0-.312.108-.577.324-.796.216-.219.486-.329.81-.329.324 0 .596.11.815.329.219.219.328.484.328.796zm0-19.276c0 .313-.11.578-.329.797-.219.219-.49.328-.815.328-.324 0-.594-.109-.81-.328a1.092 1.092 0 0 1-.324-.797c0-.312.108-.577.324-.796.216-.219.486-.329.81-.329.324 0 .596.11.815.329.219.219.328.484.328.796zm22 38.552c0 .312-.11.578-.329.797-.219.219-.49.328-.815.328-.324 0-.594-.109-.81-.328a1.092 1.092 0 0 1-.324-.797c0-.312.108-.577.324-.796.216-.219.486-.329.81-.329.324 0 .596.11.815.329.219.219.328.484.328.796zm22 0c0 .312-.11.578-.329.797-.219.219-.49.328-.815.328-.324 0-.594-.109-.81-.328a1.092 1.092 0 0 1-.324-.797c0-.312.108-.577.324-.796.216-.219.486-.329.81-.329.324 0 .596.11.815.329.219.219.328.484.328.796zm0-19.276c0 .313-.11.578-.329.797-.219.219-.49.328-.815.328-.324 0-.594-.109-.81-.328a1.092 1.092 0 0 1-.324-.797c0-.312.108-.577.324-.796.216-.219.486-.329.81-.329.324 0 .596.11.815.329.219.219.328.484.328.796zm22 19.276c0 .312-.11.578-.329.797-.219.219-.49.328-.815.328-.324 0-.594-.109-.81-.328a1.092 1.092 0 0 1-.324-.797c0-.312.108-.577.324-.796.216-.219.486-.329.81-.329.324 0 .596.11.815.329.219.219.328.484.328.796zm0-19.276c0 .313-.11.578-.329.797-.219.219-.49.328-.815.328-.324 0-.594-.109-.81-.328a1.092 1.092 0 0 1-.324-.797c0-.312.108-.577.324-.796.216-.219.486-.329.81-.329.324 0 .596.11.815.329.219.219.328.484.328.796zm0-19.276c0 .313-.11.578-.329.797-.219.219-.49.328-.815.328-.324 0-.594-.109-.81-.328a1.092 1.092 0 0 1-.324-.797c0-.312.108-.577.324-.796.216-.219.486-.329.81-.329.324 0 .596.11.815.329.219.219.328.484.328.796zm22 38.552c0 .312-.11.578-.329.797-.219.219-.49.328-.815.328-.324 0-.594-.109-.81-.328a1.092 1.092 0 0 1-.324-.797c0-.312.108-.577.324-.796.216-.219.486-.329.81-.329.324 0 .596.11.815.329.219.219.328.484.328.796zm0-19.276c0 .313-.11.578-.329.797-.219.219-.49.328-.815.328-.324 0-.594-.109-.81-.328a1.092 1.092 0 0 1-.324-.797c0-.312.108-.577.324-.796.216-.219.486-.329.81-.329.324 0 .596.11.815.329.219.219.328.484.328.796zm0-19.276c0 .313-.11.578-.329.797-.219.219-.49.328-.815.328-.324 0-.594-.109-.81-.328a1.092 1.092 0 0 1-.324-.797c0-.312.108-.577.324-.796.216-.219.486-.329.81-.329.324 0 .596.11.815.329.219.219.328.484.328.796zm0-19.275c0 .312-.11.577-.329.796-.219.219-.49.329-.815.329-.324 0-.594-.11-.81-.329a1.092 1.092 0 0 1-.324-.796c0-.313.108-.578.324-.797.216-.219.486-.328.81-.328.324 0 .596.109.815.328.219.219.328.484.328.797zm0-19.276c0 .312-.11.577-.329.796-.219.219-.49.329-.815.329-.324 0-.594-.11-.81-.329a1.092 1.092 0 0 1-.324-.796c0-.313.108-.578.324-.797.216-.219.486-.328.81-.328.324 0 .596.109.815.328.219.219.328.484.328.797zm22 77.103c0 .312-.11.578-.329.797-.219.219-.49.328-.815.328-.324 0-.594-.109-.81-.328a1.092 1.092 0 0 1-.324-.797c0-.312.108-.577.324-.796.216-.219.486-.329.81-.329.324 0 .596.11.815.329.219.219.328.484.328.796zm0-19.276c0 .313-.11.578-.329.797-.219.219-.49.328-.815.328-.324 0-.594-.109-.81-.328a1.092 1.092 0 0 1-.324-.797c0-.312.108-.577.324-.796.216-.219.486-.329.81-.329.324 0 .596.11.815.329.219.219.328.484.328.796zm0-19.276c0 .313-.11.578-.329.797-.219.219-.49.328-.815.328-.324 0-.594-.109-.81-.328a1.092 1.092 0 0 1-.324-.797c0-.312.108-.577.324-.796.216-.219.486-.329.81-.329.324 0 .596.11.815.329.219.219.328.484.328.796zm0-19.275c0 .312-.11.577-.329.796-.219.219-.49.329-.815.329-.324 0-.594-.11-.81-.329a1.092 1.092 0 0 1-.324-.796c0-.313.108-.578.324-.797.216-.219.486-.328.81-.328.324 0 .596.109.815.328.219.219.328.484.328.797zm0-19.276c0 .312-.11.577-.329.796-.219.219-.49.329-.815.329-.324 0-.594-.11-.81-.329a1.092 1.092 0 0 1-.324-.796c0-.313.108-.578.324-.797.216-.219.486-.328.81-.328.324 0 .596.109.815.328.219.219.328.484.328.797zm0-19.276c0 .312-.11.577-.329.796-.219.219-.49.329-.815.329-.324 0-.594-.11-.81-.329a1.092 1.092 0 0 1-.324-.796c0-.312.108-.578.324-.797.216-.219.486-.328.81-.328.324 0 .596.109.815.328.219.219.328.485.328.797zm22 96.38c0 .311-.11.577-.329.796-.219.219-.49.328-.815.328-.324 0-.594-.109-.81-.328a1.092 1.092 0 0 1-.324-.797c0-.312.108-.577.324-.796.216-.219.486-.329.81-.329.324 0 .596.11.815.329.219.219.328.484.328.796zm0-19.277c0 .313-.11.578-.329.797-.219.219-.49.328-.815.328-.324 0-.594-.109-.81-.328a1.092 1.092 0 0 1-.324-.797c0-.312.108-.577.324-.796.216-.219.486-.329.81-.329.324 0 .596.11.815.329.219.219.328.484.328.796zm0-19.276c0 .313-.11.578-.329.797-.219.219-.49.328-.815.328-.324 0-.594-.109-.81-.328a1.092 1.092 0 0 1-.324-.797c0-.312.108-.577.324-.796.216-.219.486-.329.81-.329.324 0 .596.11.815.329.219.219.328.484.328.796zm0-19.275c0 .312-.11.577-.329.796-.219.219-.49.329-.815.329-.324 0-.594-.11-.81-.329a1.092 1.092 0 0 1-.324-.796c0-.313.108-.578.324-.797.216-.219.486-.328.81-.328.324 0 .596.109.815.328.219.219.328.484.328.797zm22 57.827c0 .312-.11.578-.329.797-.219.219-.49.328-.815.328-.324 0-.594-.109-.81-.328a1.092 1.092 0 0 1-.324-.797c0-.312.108-.577.324-.796.216-.219.486-.329.81-.329.324 0 .596.11.815.329.219.219.328.484.328.796zm0-19.276c0 .313-.11.578-.329.797-.219.219-.49.328-.815.328-.324 0-.594-.109-.81-.328a1.092 1.092 0 0 1-.324-.797c0-.312.108-.577.324-.796.216-.219.486-.329.81-.329.324 0 .596.11.815.329.219.219.328.484.328.796zm0-19.276c0 .313-.11.578-.329.797-.219.219-.49.328-.815.328-.324 0-.594-.109-.81-.328a1.092 1.092 0 0 1-.324-.797c0-.312.108-.577.324-.796.216-.219.486-.329.81-.329.324 0 .596.11.815.329.219.219.328.484.328.796zm0-19.275c0 .312-.11.577-.329.796-.219.219-.49.329-.815.329-.324 0-.594-.11-.81-.329a1.092 1.092 0 0 1-.324-.796c0-.313.108-.578.324-.797.216-.219.486-.328.81-.328.324 0 .596.109.815.328.219.219.328.484.328.797zm0-19.276c0 .312-.11.577-.329.796-.219.219-.49.329-.815.329-.324 0-.594-.11-.81-.329a1.092 1.092 0 0 1-.324-.796c0-.313.108-.578.324-.797.216-.219.486-.328.81-.328.324 0 .596.109.815.328.219.219.328.484.328.797zm22 77.103c0 .312-.11.578-.329.797-.219.219-.49.328-.815.328-.324 0-.594-.109-.81-.328a1.092 1.092 0 0 1-.324-.797c0-.312.108-.577.324-.796.216-.219.486-.329.81-.329.324 0 .596.11.815.329.219.219.328.484.328.796zm0-19.276c0 .313-.11.578-.329.797-.219.219-.49.328-.815.328-.324 0-.594-.109-.81-.328a1.092 1.092 0 0 1-.324-.797c0-.312.108-.577.324-.796.216-.219.486-.329.81-.329.324 0 .596.11.815.329.219.219.328.484.328.796zm0-19.276c0 .313-.11.578-.329.797-.219.219-.49.328-.815.328-.324 0-.594-.109-.81-.328a1.092 1.092 0 0 1-.324-.797c0-.312.108-.577.324-.796.216-.219.486-.329.81-.329.324 0 .596.11.815.329.219.219.328.484.328.796zm0-19.275c0 .312-.11.577-.329.796-.219.219-.49.329-.815.329-.324 0-.594-.11-.81-.329a1.092 1.092 0 0 1-.324-.796c0-.313.108-.578.324-.797.216-.219.486-.328.81-.328.324 0 .596.109.815.328.219.219.328.484.328.797zm22 57.827c0 .312-.11.578-.329.797-.219.219-.49.328-.815.328-.324 0-.594-.109-.81-.328a1.092 1.092 0 0 1-.324-.797c0-.312.108-.577.324-.796.216-.219.486-.329.81-.329.324 0 .596.11.815.329.219.219.328.484.328.796zm0-19.276c0 .313-.11.578-.329.797-.219.219-.49.328-.815.328-.324 0-.594-.109-.81-.328a1.092 1.092 0 0 1-.324-.797c0-.312.108-.577.324-.796.216-.219.486-.329.81-.329.324 0 .596.11.815.329.219.219.328.484.328.796zm0-19.276c0 .313-.11.578-.329.797-.219.219-.49.328-.815.328-.324 0-.594-.109-.81-.328a1.092 1.092 0 0 1-.324-.797c0-.312.108-.577.324-.796.216-.219.486-.329.81-.329.324 0 .596.11.815.329.219.219.328.484.328.796zm22 38.552c0 .312-.11.578-.329.797-.219.219-.49.328-.815.328-.324 0-.594-.109-.81-.328a1.092 1.092 0 0 1-.324-.797c0-.312.108-.577.324-.796.216-.219.486-.329.81-.329.324 0 .596.11.815.329.219.219.328.484.328.796zm0-19.276c0 .313-.11.578-.329.797-.219.219-.49.328-.815.328-.324 0-.594-.109-.81-.328a1.092 1.092 0 0 1-.324-.797c0-.312.108-.577.324-.796.216-.219.486-.329.81-.329.324 0 .596.11.815.329.219.219.328.484.328.796zm22 19.276c0 .312-.11.578-.329.797-.219.219-.49.328-.815.328-.324 0-.594-.109-.81-.328a1.092 1.092 0 0 1-.324-.797c0-.312.108-.577.324-.796.216-.219.486-.329.81-.329.324 0 .596.11.815.329.219.219.328.484.328.796zm0-19.276c0 .313-.11.578-.329.797-.219.219-.49.328-.815.328-.324 0-.594-.109-.81-.328a1.092 1.092 0 0 1-.324-.797c0-.312.108-.577.324-.796.216-.219.486-.329.81-.329.324 0 .596.11.815.329.219.219.328.484.328.796zm22 19.276c0 .312-.11.578-.329.797-.219.219-.49.328-.815.328-.324 0-.594-.109-.81-.328a1.092 1.092 0 0 1-.324-.797c0-.312.108-.577.324-.796.216-.219.486-.329.81-.329.324 0 .596.11.815.329.219.219.328.484.328.796zm0-19.276c0 .313-.11.578-.329.797-.219.219-.49.328-.815.328-.324 0-.594-.109-.81-.328a1.092 1.092 0 0 1-.324-.797c0-.312.108-.577.324-.796.216-.219.486-.329.81-.329.324 0 .596.11.815.329.219.219.328.484.328.796zm0-19.276c0 .313-.11.578-.329.797-.219.219-.49.328-.815.328-.324 0-.594-.109-.81-.328a1.092 1.092 0 0 1-.324-.797c0-.312.108-.577.324-.796.216-.219.486-.329.81-.329.324 0 .596.11.815.329.219.219.328.484.328.796zm22 38.552c0 .312-.11.578-.329.797-.219.219-.49.328-.815.328-.324 0-.594-.109-.81-.328a1.092 1.092 0 0 1-.324-.797c0-.312.108-.577.324-.796.216-.219.486-.329.81-.329.324 0 .596.11.815.329.219.219.328.484.328.796zm0-19.276c0 .313-.11.578-.329.797-.219.219-.49.328-.815.328-.324 0-.594-.109-.81-.328a1.092 1.092 0 0 1-.324-.797c0-.312.108-.577.324-.796.216-.219.486-.329.81-.329.324 0 .596.11.815.329.219.219.328.484.328.796zm0-19.276c0 .313-.11.578-.329.797-.219.219-.49.328-.815.328-.324 0-.594-.109-.81-.328a1.092 1.092 0 0 1-.324-.797c0-.312.108-.577.324-.796.216-.219.486-.329.81-.329.324 0 .596.11.815.329.219.219.328.484.328.796zm22 38.552c0 .312-.11.578-.329.797-.219.219-.49.328-.815.328-.324 0-.594-.109-.81-.328a1.092 1.092 0 0 1-.324-.797c0-.312.108-.577.324-.796.216-.219.486-.329.81-.329.324 0 .596.11.815.329.219.219.328.484.328.796zm0-19.276c0 .313-.11.578-.329.797-.219.219-.49.328-.815.328-.324 0-.594-.109-.81-.328a1.092 1.092 0 0 1-.324-.797c0-.312.108-.577.324-.796.216-.219.486-.329.81-.329.324 0 .596.11.815.329.219.219.328.484.328.796zm0-19.276c0 .313-.11.578-.329.797-.219.219-.49.328-.815.328-.324 0-.594-.109-.81-.328a1.092 1.092 0 0 1-.324-.797c0-.312.108-.577.324-.796.216-.219.486-.329.81-.329.324 0 .596.11.815.329.219.219.328.484.328.796zm0-19.275c0 .312-.11.577-.329.796-.219.219-.49.329-.815.329-.324 0-.594-.11-.81-.329a1.092 1.092 0 0 1-.324-.796c0-.313.108-.578.324-.797.216-.219.486-.328.81-.328.324 0 .596.109.815.328.219.219.328.484.328.797zm22 57.827c0 .312-.11.578-.329.797-.219.219-.49.328-.815.328-.324 0-.594-.109-.81-.328a1.092 1.092 0 0 1-.324-.797c0-.312.108-.577.324-.796.216-.219.486-.329.81-.329.324 0 .596.11.815.329.219.219.328.484.328.796zm0-19.276c0 .313-.11.578-.329.797-.219.219-.49.328-.815.328-.324 0-.594-.109-.81-.328a1.092 1.092 0 0 1-.324-.797c0-.312.108-.577.324-.796.216-.219.486-.329.81-.329.324 0 .596.11.815.329.219.219.328.484.328.796zm22 19.276c0 .312-.11.578-.329.797-.219.219-.49.328-.815.328-.324 0-.594-.109-.81-.328a1.092 1.092 0 0 1-.324-.797c0-.312.108-.577.324-.796.216-.219.486-.329.81-.329.324 0 .596.11.815.329.219.219.328.484.328.796zm0-19.276c0 .313-.11.578-.329.797-.219.219-.49.328-.815.328-.324 0-.594-.109-.81-.328a1.092 1.092 0 0 1-.324-.797c0-.312.108-.577.324-.796.216-.219.486-.329.81-.329.324 0 .596.11.815.329.219.219.328.484.328.796zm0-19.276c0 .313-.11.578-.329.797-.219.219-.49.328-.815.328-.324 0-.594-.109-.81-.328a1.092 1.092 0 0 1-.324-.797c0-.312.108-.577.324-.796.216-.219.486-.329.81-.329.324 0 .596.11.815.329.219.219.328.484.328.796zm0-19.275c0 .312-.11.577-.329.796-.219.219-.49.329-.815.329-.324 0-.594-.11-.81-.329a1.092 1.092 0 0 1-.324-.796c0-.313.108-.578.324-.797.216-.219.486-.328.81-.328.324 0 .596.109.815.328.219.219.328.484.328.797zm22 57.827c0 .312-.11.578-.329.797-.219.219-.49.328-.815.328-.324 0-.594-.109-.81-.328a1.092 1.092 0 0 1-.324-.797c0-.312.108-.577.324-.796.216-.219.486-.329.81-.329.324 0 .596.11.815.329.219.219.328.484.328.796zm0-19.276c0 .313-.11.578-.329.797-.219.219-.49.328-.815.328-.324 0-.594-.109-.81-.328a1.092 1.092 0 0 1-.324-.797c0-.312.108-.577.324-.796.216-.219.486-.329.81-.329.324 0 .596.11.815.329.219.219.328.484.328.796zm0-19.276c0 .313-.11.578-.329.797-.219.219-.49.328-.815.328-.324 0-.594-.109-.81-.328a1.092 1.092 0 0 1-.324-.797c0-.312.108-.577.324-.796.216-.219.486-.329.81-.329.324 0 .596.11.815.329.219.219.328.484.328.796zm22 38.552c0 .312-.11.578-.329.797-.219.219-.49.328-.815.328-.324 0-.594-.109-.81-.328a1.092 1.092 0 0 1-.324-.797c0-.312.108-.577.324-.796.216-.219.486-.329.81-.329.324 0 .596.11.815.329.219.219.328.484.328.796z" opacity=".4"/>
</svg>
