<?xml version="1.0" encoding="UTF-8"?>
<svg width="22px" height="24px" viewBox="0 0 22 24" version="1.1" xmlns="http://www.w3.org/2000/svg" xmlns:xlink="http://www.w3.org/1999/xlink">
    <!-- Generator: Sketch 47.1 (45422) - http://www.bohemiancoding.com/sketch -->
    <title>alert</title>
    <desc>Created with Sketch.</desc>
    <defs></defs>
    <g id="Page-1" stroke="none" stroke-width="1" fill="none" fill-rule="evenodd" opacity="1">
        <g id="dashboard-005i" transform="translate(-1055.000000, -289.000000)" stroke="#ff6262">
            <g id="activity-Log" transform="translate(997.000000, 169.000000)">
                <g id="notifications" transform="translate(32.000000, 97.000000)">
                    <g id="alert" transform="translate(27.000000, 24.000000)">
                        <g id="Group">
                            <path d="M19.8636364,18.8833333 L0.136363636,18.8833333 L0.136363636,18.8833333 C2.09090909,17.2791667 3.77272727,14.4833333 3.77272727,11.8708333 L3.77272727,8.57083333 C3.81818182,5.0875 6.59090909,2.29166667 10,2.29166667 L10,2.29166667 L10,2.29166667 L10,2.29166667 L10,2.29166667 C13.4090909,2.29166667 16.1818182,5.0875 16.1818182,8.525 L16.1818182,11.825 C16.1818182,14.4375 17.9090909,17.2333333 19.8636364,18.8833333 L19.8636364,18.8833333 Z" id="Shape"></path>
                            <path d="M5.90909091,8.525 C5.90909091,6.23333333 7.77272727,4.4 10,4.4" id="Shape"></path>
                            <path d="M13.0909091,18.8833333 C13.0909091,20.625 11.6818182,22 10,22 C8.31818182,22 6.90909091,20.5791667 6.90909091,18.8833333" id="Shape"></path>
                            <polyline id="Shape" points="8.31818182 2.52083333 8.31818182 0 11.6818182 0 11.6818182 2.52083333"></polyline>
                        </g>
                    </g>
                </g>
            </g>
        </g>
    </g>
</svg>