<?xml version="1.0" encoding="UTF-8"?>
<svg width="16px" height="25px" viewBox="0 0 16 25" version="1.1" xmlns="http://www.w3.org/2000/svg" xmlns:xlink="http://www.w3.org/1999/xlink">
    <!-- Generator: Sketch 47.1 (45422) - http://www.bohemiancoding.com/sketch -->
    <title>noun_1240295_cc</title>
    <desc>Created with Sketch.</desc>
    <defs></defs>
    <g id="Page-1" stroke="none" stroke-width="1" fill="none" fill-rule="evenodd">
        <g id="dashboard-005i" transform="translate(-102.000000, -837.000000)" stroke="#0067AF" fill-rule="nonzero">
            <g id="wallet" transform="translate(61.000000, 729.000000)">
                <g id="BTC" transform="translate(20.000000, 92.000000)">
                    <g id="card-BTC" transform="translate(0.000000, 1.000000)">
                        <g id="noun_1240295_cc" transform="translate(21.789474, 15.657895)">
                            <path d="M11.7742422,11.0247525 L11.7742422,10.9763983 C13.1765134,10.2510856 13.9501802,8.87299158 13.9501802,7.20477245 C13.9501802,5.22225117 12.8622112,3.74744876 11.2665234,3.11884445 C10.5412107,2.82871939 9.84007513,2.70783394 8.92134575,2.65947976 L8.92134575,0.169239621 C8.92134575,0.0725312663 8.84881449,0 8.75210613,0 L7.34983498,0 C7.25312663,0 7.18059536,0.0725312663 7.18059536,0.169239621 L7.18059536,2.63530268 L5.31895953,2.63530268 L5.31895953,0.169239621 C5.31895953,0.0725312663 5.24642826,0 5.14971991,0 L3.74744876,0 C3.6507404,0 3.57820914,0.0725312663 3.57820914,0.169239621 L3.57820914,2.63530268 L0.362656331,2.63530268 C0.169239621,2.63530268 0,2.78036521 0,2.99795901 L0,4.76288649 C0,4.9563032 0.145062533,5.12554282 0.362656331,5.12554282 L1.13632317,5.12554282 C1.69239621,5.12554282 2.12758381,5.5849075 2.12758381,6.11680346 L2.12758381,16.875608 C2.12758381,17.431681 1.66821912,17.8668686 1.13632317,17.8668686 L0.362656331,17.8668686 C0.169239621,17.8668686 0,18.0119311 0,18.2295249 L0,19.9702753 C0,20.163692 0.145062533,20.3329316 0.362656331,20.3329316 L3.57820914,20.3329316 L3.57820914,22.7989947 C3.57820914,22.8957031 3.6507404,22.9682343 3.74744876,22.9682343 L5.14971991,22.9682343 C5.24642826,22.9682343 5.31895953,22.8957031 5.31895953,22.7989947 L5.31895953,20.3329316 L7.18059536,20.3329316 L7.18059536,22.7989947 C7.18059536,22.8957031 7.25312663,22.9682343 7.34983498,22.9682343 L8.75210613,22.9682343 C8.84881449,22.9682343 8.92134575,22.8957031 8.92134575,22.7989947 L8.92134575,20.3087546 C9.71918968,20.3087546 10.3961482,20.2362233 11.1456379,20.0186295 C13.0556279,19.4142023 14.6513158,17.6734519 14.6513158,15.2073888 C14.6271387,13.345753 13.7325864,11.6291797 11.7742422,11.0247525 Z M5.34313662,5.27060535 L8.07514765,5.27060535 C8.70375195,5.27060535 9.21147082,5.36731371 9.59830424,5.53655333 C10.2994398,5.89920966 10.613742,6.6728765 10.613742,7.54325169 C10.613742,8.92134575 9.84007513,9.86425221 8.43780398,9.86425221 L5.31895953,9.86425221 L5.31895953,5.27060535 L5.34313662,5.27060535 Z M9.91260639,17.5042123 C9.54995006,17.6734519 9.06640829,17.697629 8.65539778,17.697629 L5.36731371,17.697629 L5.36731371,12.4512007 L8.77628322,12.4512007 C10.3961482,12.4512007 11.3390546,13.4908155 11.3390546,15.0139721 C11.3148775,16.1261182 10.8071587,17.1415559 9.91260639,17.5042123 Z" id="Shape"></path>
                        </g>
                    </g>
                </g>
            </g>
        </g>
    </g>
</svg>