<?xml version="1.0" encoding="UTF-8"?>
<svg width="22px" height="20px" viewBox="0 0 22 20" version="1.1" xmlns="http://www.w3.org/2000/svg" xmlns:xlink="http://www.w3.org/1999/xlink">
    <!-- Generator: Sketch 48.1 (47250) - http://www.bohemiancoding.com/sketch -->
    <title>if_linkedin_115546</title>
    <desc>Created with Sketch.</desc>
    <defs></defs>
    <g id="Home-002j" stroke="none" stroke-width="1" fill="none" fill-rule="evenodd" transform="translate(-688.000000, -7446.000000)">
        <g id="footer" transform="translate(60.000000, 7167.000000)" fill="#4DA1FF" fill-rule="nonzero">
            <g id="if_linkedin_115546" transform="translate(628.000000, 279.000000)">
                <path d="M22,11.9014432 L22,19.4117647 L17.2846667,19.4117647 L17.2846667,12.4043434 C17.2846667,10.6439672 16.6026667,9.44269494 14.8962,9.44269494 C13.5930667,9.44269494 12.8176889,10.2523461 12.4766889,11.0355882 C12.3522667,11.3154788 12.3202444,11.7052941 12.3202444,12.0971409 L12.3202444,19.4117647 L7.6032,19.4117647 C7.6032,19.4117647 7.66675556,7.54350205 7.6032,6.31378933 L12.3195111,6.31378933 L12.3195111,8.17032148 C12.3099778,8.18431601 12.2975111,8.19921341 12.2884667,8.2127565 L12.3195111,8.2127565 L12.3195111,8.17032148 C12.9460222,7.27918605 14.0653333,6.00613543 16.5701556,6.00613543 C19.6733778,6.00613543 22,7.87824213 22,11.9014432 Z M2.66908889,0 C1.05551111,0 0,0.977359781 0,2.26259918 C0,3.51984952 1.02495556,4.52677839 2.60651111,4.52677839 L2.63804444,4.52677839 C4.28291111,4.52677839 5.30591111,3.52007524 5.30591111,2.26259918 C5.27486667,0.977359781 4.28291111,0 2.66908889,0 Z M0.280133333,19.4117647 L4.99522222,19.4117647 L4.99522222,6.31378933 L0.280133333,6.31378933 L0.280133333,19.4117647 Z" id="Shape"></path>
            </g>
        </g>
    </g>
</svg>