<?xml version="1.0" encoding="UTF-8"?>
<svg width="42px" height="42px" viewBox="0 0 42 42" version="1.1" xmlns="http://www.w3.org/2000/svg" xmlns:xlink="http://www.w3.org/1999/xlink">
    <!-- Generator: Sketch 47.1 (45422) - http://www.bohemiancoding.com/sketch -->
    <title>wallet</title>
    <desc>Created with Sketch.</desc>
    <defs></defs>
    <g id="Page-1" stroke="none" stroke-width="1" fill="none" fill-rule="evenodd">
        <g id="dashboard-005i" transform="translate(-61.000000, -746.000000)">
            <g id="wallet" transform="translate(61.000000, 729.000000)">
                <g transform="translate(1.000000, 18.000000)">
                    <circle id="Oval-4" stroke="#979797" opacity="0.300000012" cx="20" cy="20" r="20"></circle>
                    <g id="noun_835545_cc" opacity="0.5" transform="translate(8.484848, 9.696970)" stroke="#042C47">
                        <g id="Group">
                            <path d="M16.969697,1.45454545 L16.969697,4.84848485 L2.25261464,4.84848485 C1.00116206,4.84848485 0,3.87878788 0,2.66666667 L0,2.18181818 C0,0.96969697 1.00116206,0 2.25261464,0 L15.4679539,0 C16.2688835,-2.15315981e-16 16.969697,0.63030303 16.969697,1.45454545 Z" id="Shape"></path>
                            <path d="M24.2424242,15.2284752 C24.2424242,15.5170755 24.0013774,15.7575758 23.7121212,15.7575758 L20.5785124,15.7575758 L17.3484848,15.7575758 L15.7575758,12.7272727 L17.3484848,9.6969697 L20.5785124,9.6969697 L23.7121212,9.6969697 C24.0013774,9.6969697 24.2424242,9.93746994 24.2424242,10.2260702 L24.2424242,12.7272727 L24.2424242,15.2284752 Z" id="Shape"></path>
                            <path d="M21.8181818,16.4749536 L21.8181818,19.047619 C21.8181818,20.5813234 20.603361,21.8181818 19.0969832,21.8181818 L2.72119862,21.8181818 C1.21482081,21.8181818 0,20.5813234 0,19.047619 L0,2.42424242" id="Shape"></path>
                            <path d="M16.969697,4.84848485 L19.9727,4.84848485 C21.6653017,4.84848485 23.030303,5.96052266 23.030303,7.33944954 L23.030303,9.6969697" id="Shape"></path>
                            <circle id="Oval" cx="19.3939394" cy="13.3333333" r="1.21212121"></circle>
                            <path d="M2.42424242,18.1818182 L10.9090909,18.1818182" id="Shape"></path>
                        </g>
                    </g>
                </g>
            </g>
        </g>
    </g>
</svg>