<?xml version="1.0" encoding="UTF-8"?>
<svg width="22px" height="15px" viewBox="0 0 22 15" version="1.1" xmlns="http://www.w3.org/2000/svg" xmlns:xlink="http://www.w3.org/1999/xlink">
    <!-- Generator: Sketch 47.1 (45422) - http://www.bohemiancoding.com/sketch -->
    <title>noun_835335_cc</title>
    <desc>Created with Sketch.</desc>
    <defs>
        <linearGradient x1="0%" y1="100%" x2="201.41942%" y2="-124.739583%" id="linearGradient-1">
            <stop stop-color="#0067AF" offset="0%"></stop>
            <stop stop-color="#00AAD7" offset="100%"></stop>
        </linearGradient>
    </defs>
    <g id="Page-1" stroke="none" stroke-width="1" fill="none" fill-rule="evenodd">
        <g id="dashboard-005i" transform="translate(-1035.000000, -550.000000)" stroke="url(#linearGradient-1)">
            <g id="activity-Log" transform="translate(997.000000, 169.000000)">
                <g id="1" transform="translate(31.000000, 347.000000)">
                    <g id="Bitmap" transform="translate(0.000000, 24.000000)">
                        <g id="noun_835335_cc" transform="translate(8.000000, 11.000000)">
                            <g id="Group">
                                <path d="M18.6809163,12.5493245 L0.940177409,12.5493245 C0.408772786,12.5493245 0,12.1405518 0,11.6091471 L0,0.940177409 C0,0.408772786 0.408772786,0 0.940177409,0 L18.6809163,0 C19.212321,0 19.6210938,0.408772786 19.6210938,0.940177409 L19.6210938,11.6091471 C19.6210938,12.0996745 19.212321,12.5493245 18.6809163,12.5493245 Z" id="Shape"></path>
                                <path d="M3,8.43667806 L3,4.3489502 C3.73579102,4.3489502 4.3489502,3.73579102 4.3489502,3 L15.5493245,3 C15.5493245,3.73579102 16.1624837,4.3489502 16.8982747,4.3489502 L16.8982747,8.47755534 C16.1624837,8.47755534 15.5493245,9.09071452 15.5493245,9.82650553 L4.3489502,9.82650553 C4.3489502,9.04983724 3.73579102,8.43667806 3,8.43667806 Z" id="Shape"></path>
                                <circle id="Oval" cx="10.3080729" cy="6.30807292" r="1.30807292"></circle>
                            </g>
                        </g>
                    </g>
                </g>
            </g>
        </g>
    </g>
</svg>