<svg xmlns="http://www.w3.org/2000/svg" width="64" height="54" viewBox="0 0 64 54">
    <g fill="#4DA1FF" fill-rule="nonzero">
        <path d="M60.5 17.104C60.5 9.614 53.933 3.5 45.75 3.5c-5.088 0-9.818 2.532-12.506 6.525A1.5 1.5 0 0 1 30.74 10c-2.557-3.97-7.281-6.5-12.489-6.5C10.067 3.5 3.5 9.613 3.5 17.104c0 10.483 9.7 22.778 28.5 33.185 18.8-10.407 28.5-22.702 28.5-33.185zM45.75.5C55.543.5 63.5 7.906 63.5 17.104c0 11.903-10.644 25.252-30.783 36.213a1.5 1.5 0 0 1-1.434 0C11.144 42.356.5 29.007.5 17.104.5 7.906 8.457.5 18.25.5c5.466 0 10.514 2.348 13.77 6.2C35.36 2.848 40.39.5 45.75.5z"/>
        <path d="M52.382 24.517l.03-.032a1.49 1.49 0 0 1 2.206 1.998l-.03.032a1.485 1.485 0 0 1-2.095.103 1.488 1.488 0 0 1-.11-2.101zM46.432 32.81c1.725-1.695 2.951-3.2 4.324-5.094a1.236 1.236 0 0 1 1.758-.24c.554.428.594 1.194.246 1.787-1.377 2.348-2.377 3.546-4.603 5.408-.19.16-.393.277-.618.321-.409.08-.848-.05-1.156-.381a1.296 1.296 0 0 1 .049-1.802z"/>
    </g>
</svg>
