<?xml version="1.0" encoding="UTF-8"?>
<svg width="22px" height="18px" viewBox="0 0 22 18" version="1.1" xmlns="http://www.w3.org/2000/svg" xmlns:xlink="http://www.w3.org/1999/xlink">
    <!-- Generator: Sketch 48.1 (47250) - http://www.bohemiancoding.com/sketch -->
    <title>me</title>
    <desc>Created with Sketch.</desc>
    <defs></defs>
    <g id="Home-002j" stroke="none" stroke-width="1" fill="none" fill-rule="evenodd" transform="translate(-772.000000, -7447.000000)">
        <g id="footer" transform="translate(60.000000, 7167.000000)" fill="#4DA1FF">
            <g id="me" transform="translate(712.000000, 280.000000)">
                <path d="M7.14581719,4.06500703 L0.689108905,1.06821732 C0.633865185,1.04254348 0.581200939,1.03043819 0.533623987,1.03043819 C0.465841161,1.03043819 0.408519532,1.05518086 0.368179435,1.10034289 C0.328699163,1.14450723 0.305555556,1.20835928 0.305555556,1.28824086 L0.305555556,14.1534984 C0.305555556,14.3724578 0.478165311,14.6316572 0.689108905,14.7295637 L6.65586057,17.4989469 C6.73876197,17.5374577 6.81772252,17.5556821 6.88908795,17.5556821 C7.09014356,17.5556821 7.23115477,17.4112834 7.23115477,17.1689116 L7.23115477,4.19324323 C7.23115477,4.13896899 7.19812318,4.08928411 7.14581719,4.06500703" id="Fill-51"></path>
                <path d="M14.708403,14.8036587 L20.5064141,17.4946901 C20.8228295,17.6415499 21.0817083,17.4930273 21.0817083,17.1645883 L21.0817083,5.18993388 L14.708403,14.8036587" id="Fill-50"></path>
                <polyline id="Fill-48" points="7.84327811 5.0279758 7.84327811 11.6212324 14.1568256 14.5515761 7.84327811 5.0279758"></polyline>
                <path d="M20.9299493,4.03387915 L14.3485665,0.979223526 C14.3186876,0.965322402 14.2861576,0.958870684 14.2536275,0.958072533 C14.251478,0.95800602 14.2494001,0.957407407 14.2472505,0.957407407 C14.1672152,0.957407407 14.0875381,0.994720951 14.0444036,1.05970372 L9.98789521,7.17879231 L14.5161606,14.0094987 L20.9930748,4.23946946 C21.0410816,4.16697077 21.0119192,4.07192433 20.9299493,4.03387915" id="Fill-47"></path>
            </g>
        </g>
    </g>
</svg>