<svg xmlns="http://www.w3.org/2000/svg" width="55" height="66" viewBox="0 0 55 66">
    <g fill="#4DA1FF" fill-rule="nonzero">
        <path d="M41.737 47.113c-1.178-.779-2.632-1.17-4.037-1.548-.307-.083-.612-.165-.912-.251-1.719-.493-2.822-1.466-2.95-2.603-.102-.92.465-1.806 1.519-2.372.222-.12.47-.21.736-.272v2.04c0 .759.63 1.373 1.407 1.373s1.407-.614 1.407-1.372v-1.94a8.48 8.48 0 0 1 2.277.901c.664.393 1.53.186 1.932-.463a1.353 1.353 0 0 0-.475-1.884 11.445 11.445 0 0 0-3.734-1.363v-.987c0-.757-.63-1.372-1.407-1.372s-1.407.615-1.407 1.372v.904a6.184 6.184 0 0 0-2.094.659c-2.052 1.102-3.185 3.047-2.957 5.075.255 2.275 2.106 4.121 4.953 4.937l.098.027v6.461c-1.165-.19-2.128-.67-2.437-1.25a1.425 1.425 0 0 0-1.897-.586 1.356 1.356 0 0 0-.6 1.85c.855 1.609 2.84 2.515 4.933 2.746v1.433c0 .757.63 1.372 1.408 1.372.776 0 1.407-.615 1.407-1.372v-1.532c.291-.055.576-.123.85-.207 2.206-.679 3.848-2.551 4.181-4.771.303-2.022-.52-3.893-2.201-5.005zm-.583 4.608c-.178 1.185-1.059 2.186-2.243 2.55l-.004.001v-5.48c.473.17.903.363 1.25.592 1.106.732 1.066 1.878.997 2.337z"/>
        <path d="M37.125 30.25c-.462 0-.921.018-1.375.053V6.53c0-1.435-1.006-3.46-5.798-4.958C26.707.559 22.418 0 17.875 0S9.043.559 5.798 1.573C1.006 3.07 0 5.096 0 6.53v41.594c0 1.436 1.006 3.461 5.798 4.959 3.245 1.014 7.535 1.573 12.077 1.573.866 0 1.732-.022 2.586-.064C23.06 61.262 29.55 66 37.125 66 46.981 66 55 57.982 55 48.125c0-9.856-8.018-17.875-17.875-17.875zM6.618 4.198c2.987-.934 6.985-1.448 11.257-1.448 4.272 0 8.27.514 11.257 1.448C32.29 5.184 33 6.239 33 6.53c0 .292-.71 1.347-3.868 2.334-2.987.934-6.985 1.448-11.257 1.448-4.272 0-8.27-.514-11.257-1.448C3.46 7.878 2.75 6.823 2.75 6.531c0-.291.71-1.347 3.868-2.333zM2.75 10.217c.788.447 1.785.878 3.048 1.273 3.245 1.014 7.535 1.573 12.077 1.573s8.832-.56 12.077-1.573c1.263-.395 2.26-.826 3.048-1.273v3.247c0 .292-.71 1.347-3.868 2.334-2.987.933-6.985 1.447-11.257 1.447a48.57 48.57 0 0 1-5.753-.331 1.375 1.375 0 1 0-.327 2.73c1.943.233 3.988.351 6.08.351 4.543 0 8.832-.559 12.077-1.573 1.263-.394 2.26-.825 3.048-1.273v10.18c0 .291-.71 1.346-3.868 2.333-2.987.934-6.985 1.448-11.257 1.448-4.272 0-8.27-.514-11.257-1.448-3.158-.986-3.868-2.042-3.868-2.334v-3.246c.788.447 1.785.878 3.047 1.273 3.246 1.014 7.535 1.573 12.078 1.573 2.706 0 5.298-.195 7.703-.578a1.375 1.375 0 1 0-.433-2.716c-2.23.356-4.744.544-7.27.544-4.272 0-8.27-.515-11.257-1.448-3.158-.987-3.868-2.042-3.868-2.334v-10.18zm15.125 41.69c-4.272 0-8.27-.515-11.257-1.448-3.158-.987-3.868-2.042-3.868-2.334v-3.247c.788.447 1.785.879 3.047 1.273 3.246 1.015 7.535 1.573 12.078 1.573.46 0 .92-.006 1.38-.018a18.164 18.164 0 0 0 .001.887l.006.146c.003.107.007.214.012.32l.011.176c.006.096.012.192.02.287.004.065.01.13.016.194l.025.266.024.21.03.247.031.227c.01.075.021.15.033.223l.041.249.034.197.052.272.034.167.02.102c-.587.02-1.178.03-1.77.03zm2.958-11.134l-.002.004a19.04 19.04 0 0 0-.142.324l-.04.092-.062.153a17.72 17.72 0 0 0-1.054 3.6 51.44 51.44 0 0 1-1.658.028c-4.272 0-8.27-.514-11.257-1.447-3.158-.987-3.868-2.042-3.868-2.334v-10.18c.788.448 1.785.88 3.047 1.274 3.246 1.014 7.535 1.573 12.078 1.573 3.62 0 7.077-.356 9.975-1.013a17.94 17.94 0 0 0-5.337 4.982c-1.495.141-3.056.213-4.638.213a48.57 48.57 0 0 1-5.753-.332 1.375 1.375 0 1 0-.328 2.73c1.944.234 3.99.352 6.081.352a53.95 53.95 0 0 0 2.988-.086l-.03.067zM37.125 63.25c-6.774 0-12.522-4.476-14.442-10.626l-.067-.225a15.558 15.558 0 0 1-.173-.636l-.052-.212c-.033-.144-.064-.29-.094-.435l-.034-.179a14.656 14.656 0 0 1-.067-.38l-.02-.119a14.67 14.67 0 0 1-.066-.487l-.016-.142a15.348 15.348 0 0 1-.046-.474c0-.014-.002-.027-.003-.041a15.204 15.204 0 0 1-.031-1.794l.004-.103a15.379 15.379 0 0 1 .145-1.49l.038-.24c.032-.195.066-.39.106-.582l.002-.007c1.133-5.52 5.284-9.952 10.646-11.493l.065-.018a16.13 16.13 0 0 1 .974-.24A15.168 15.168 0 0 1 37.126 33c8.34 0 15.124 6.785 15.124 15.125S45.465 63.25 37.125 63.25z"/>
        <path d="M6.912 18.792c.19.058.383.115.581.17.095.026.19.038.284.038.554 0 1.056-.439 1.19-1.091.156-.763-.25-1.528-.908-1.71-.178-.049-.352-.1-.523-.152-.654-.2-1.323.253-1.495 1.01-.173.759.217 1.536.87 1.735zM29.174 26c.111 0 .225-.019.336-.058.231-.08.464-.167.692-.258.615-.244.944-1.027.735-1.748-.208-.72-.875-1.107-1.49-.863-.2.08-.404.157-.607.227-.622.218-.976.985-.79 1.715.151.598.618.985 1.124.985zM8.059 37.199c-.179-.05-.354-.1-.525-.152-.652-.199-1.322.254-1.494 1.013-.171.758.22 1.534.873 1.733.19.058.384.114.58.168.096.026.19.039.284.039.554 0 1.056-.44 1.19-1.092.156-.763-.25-1.529-.908-1.71z"/>
    </g>
</svg>
