<?xml version="1.0" encoding="UTF-8"?>
<svg width="26px" height="22px" viewBox="0 0 26 22" version="1.1" xmlns="http://www.w3.org/2000/svg" xmlns:xlink="http://www.w3.org/1999/xlink">
    <!-- Generator: Sketch 48.1 (47250) - http://www.bohemiancoding.com/sketch -->
    <title>if_reddit_115640</title>
    <desc>Created with Sketch.</desc>
    <defs></defs>
    <g id="Home-002j" stroke="none" stroke-width="1" fill="none" fill-rule="evenodd" transform="translate(-728.000000, -7445.000000)">
        <g id="footer" transform="translate(60.000000, 7167.000000)" fill="#4DA1FF" fill-rule="nonzero">
            <g id="if_reddit_115640" transform="translate(668.000000, 278.000000)">
                <path d="M18.3510963,11.9823471 C18.4172593,12.1568758 18.4474889,12.336391 18.4474889,12.5150263 C18.4474889,12.8749367 18.3265704,13.2242874 18.1238037,13.5096931 C17.9233185,13.7915789 17.6392741,14.0103997 17.305037,14.1066105 L17.3056074,14.1066105 C17.3027556,14.1077838 17.2999037,14.1077838 17.298763,14.1089571 C17.297337,14.1089571 17.2950556,14.1101304 17.2939148,14.1101304 C17.1373481,14.1652756 16.9770741,14.1907949 16.8176556,14.1907949 C16.4446333,14.1907949 16.0778852,14.0520519 15.785,13.8168049 C15.4941111,13.5818512 15.2742333,13.2448201 15.2052185,12.8444308 L15.2046481,12.8444308 C15.2046481,12.8432575 15.2046481,12.8417909 15.2040778,12.8400309 C15.2040778,12.8388576 15.2040778,12.8376843 15.202937,12.8359244 L15.2040778,12.8359244 C15.1824037,12.7326738 15.1715667,12.6297165 15.1715667,12.5276393 C15.1715667,12.1812218 15.2859259,11.8482974 15.4752889,11.573158 C15.6640815,11.2997787 15.9304444,11.0827178 16.2418667,10.9709608 C16.2430074,10.9709608 16.2441481,10.9703741 16.2441481,10.9703741 C16.2458593,10.9703741 16.2458593,10.9689075 16.2472852,10.9689075 C16.4235296,10.901736 16.6097556,10.8682968 16.7934148,10.8682968 C17.1290778,10.8682968 17.4593222,10.9727207 17.7379481,11.1642623 C18.0131519,11.3525773 18.2364519,11.6283032 18.3485296,11.9709074 C18.3496704,11.9735474 18.3496704,11.9753073 18.3508111,11.9770673 C18.3508111,11.9794139 18.3519519,11.9805872 18.3530926,11.9823471 L18.3510963,11.9823471 Z M17.325,16.2349804 C17.1935296,16.1472761 17.0415259,16.0944775 16.8803963,16.0944775 C16.750637,16.0944775 16.6157444,16.1326098 16.4956815,16.2147409 C15.3615,16.9105091 14.0279741,17.2921255 12.7035741,17.2921255 C11.7099889,17.2921255 10.7226778,17.0765313 9.82776667,16.6245167 L9.8232037,16.6221701 L9.81892593,16.6204101 C9.68374815,16.5637983 9.53003333,16.4432415 9.36234444,16.3282579 C9.27735926,16.2719394 9.18838148,16.2150343 9.08942222,16.1736754 C8.99217407,16.1308498 8.8838037,16.101224 8.76801852,16.101224 C8.67248148,16.101224 8.57181111,16.1232234 8.47228148,16.1695688 C8.46714815,16.1716221 8.4623,16.1736754 8.45745185,16.1757286 L8.45802222,16.1757286 C8.30174074,16.2370337 8.17996667,16.3496707 8.10154074,16.4822538 C8.01940741,16.6192368 7.9791963,16.7785126 7.9791963,16.9372017 C7.9791963,17.0803445 8.01227778,17.2237807 8.08015185,17.3537239 C8.14488889,17.4769206 8.2447037,17.5845711 8.37503333,17.6570225 C9.65351852,18.5437455 11.1592963,18.9458948 12.671063,18.9444281 C14.0336778,18.9444281 15.4048481,18.6200101 16.6254407,18.0292526 L16.6317148,18.025146 L16.6377037,18.0216261 C16.7985481,17.9236554 17.012437,17.8356577 17.214063,17.7077678 C17.3138778,17.6423562 17.4111259,17.5669715 17.4946852,17.4687075 C17.5782444,17.3710301 17.645263,17.2507666 17.6831926,17.1082104 L17.6831926,17.1076238 C17.699163,17.0445588 17.7065778,16.9832538 17.7065778,16.9219487 C17.7065778,16.8054985 17.6786296,16.6949148 17.6324296,16.5954775 C17.5656963,16.4450015 17.4547593,16.3226847 17.325,16.2349804 Z M8.3468,14.1013306 C8.34908148,14.1013306 8.35221852,14.1022106 8.3545,14.1036772 C8.51791111,14.1649823 8.68588519,14.1951948 8.85243333,14.1951948 C9.26794815,14.1951948 9.67177037,14.0200795 9.97748889,13.7349671 C10.2829222,13.4486814 10.4916778,13.0441855 10.4916778,12.5824911 C10.4916778,12.5704648 10.4916778,12.5584384 10.4913926,12.5440655 C10.4922481,12.5235327 10.4928185,12.5009466 10.4928185,12.4774806 C10.4928185,12.0195995 10.2866296,11.6133436 9.98433333,11.3258846 C9.6808963,11.0384256 9.27821481,10.862137 8.86098889,10.862137 C8.74976667,10.862137 8.63626296,10.87563 8.52504074,10.9023226 C8.52361481,10.9023226 8.52218889,10.9029093 8.52047778,10.9029093 L8.51876667,10.9029093 C7.96664815,11.0217061 7.48211852,11.4432148 7.30330741,12.0228261 L7.30330741,12.0234127 C7.30330741,12.024586 7.30273704,12.0257593 7.30273704,12.0257593 C7.2514037,12.1844484 7.22744815,12.3484174 7.22744815,12.5106264 C7.22744815,12.8655503 7.34180741,13.2116744 7.53858519,13.4962001 C7.73365185,13.7760326 8.00942593,13.9960268 8.34081111,14.0992774 C8.34309259,14.099864 8.34451852,14.1001573 8.3468,14.1013306 Z M25.6615333,9.95869443 L25.6615333,9.96104104 C25.6658111,10.0188262 25.6666667,10.076318 25.6666667,10.1335164 C25.6666667,10.774726 25.4667519,11.3912962 25.1330852,11.9142956 C24.821663,12.4038559 24.3921741,12.8133383 23.897663,13.0914109 C23.9293185,13.3466041 23.9478556,13.6038506 23.9478556,13.8602171 C23.9472852,15.2409002 23.4844296,16.5981174 22.6784963,17.6857684 L22.6784963,17.686355 L22.6767852,17.686355 C21.1866926,19.7249673 18.8986519,20.9273086 16.5880815,21.5336124 L16.5875111,21.5336124 L16.5858,21.5350791 C15.3538,21.8427775 14.0833,22 12.8130852,22 C10.9194556,22 9.02782222,21.6488894 7.26224074,20.9205621 L7.26167037,20.9188022 L7.25995926,20.9188022 C5.42964074,20.1426629 3.68573333,18.9092291 2.61628889,17.1020506 C2.04107037,16.1378897 1.72508519,15.0065332 1.72508519,13.8698968 C1.72508519,13.6126503 1.74191111,13.3551105 1.77527778,13.100504 C1.29388519,12.8215514 0.876659259,12.4258553 0.566662963,11.9536012 C0.236418519,11.4464414 0.0265222222,10.8521639 0,10.2238607 L0,10.2215141 L0,10.2191675 L0,10.214181 C0.00057037037,9.33420442 0.372451852,8.50057332 0.949666667,7.88605637 C1.52716667,7.27153943 2.31598889,6.8699768 3.16213333,6.8699768 L3.19721111,6.8699768 C3.2859037,6.86381696 3.37545185,6.86029706 3.465,6.86029706 C3.89021111,6.86029706 4.31599259,6.93098851 4.72038519,7.09055759 L4.72266667,7.09231754 L4.72494815,7.09290419 C5.07030741,7.2425002 5.41338519,7.42289539 5.71938889,7.67280873 C5.81834815,7.61942348 5.92671852,7.55929175 6.04763704,7.51177302 C7.90134074,6.38276313 10.0562,5.94717474 12.1557333,5.82163142 C12.1739852,4.75157996 12.3020333,3.63166316 12.8090926,2.6513693 C13.231737,1.83709768 13.9649481,1.20292792 14.8381852,0.983227114 L14.8418926,0.981467161 L14.8467407,0.98088051 C15.1792667,0.914588944 15.5146444,0.884083091 15.8477407,0.884083091 C16.7349519,0.884083091 17.6118963,1.10026399 18.4320889,1.43758833 C18.7951296,0.873816698 19.3138815,0.433828431 19.9221815,0.187141676 L19.9281704,0.18362177 L19.9341593,0.181275166 C20.2912111,0.0668782166 20.6682259,0 21.0466667,0 C21.4459259,0 21.8486074,0.0750913309 22.2256222,0.248446708 L22.2256222,0.246980081 C22.2261926,0.248446708 22.226763,0.248446708 22.226763,0.248446708 C22.2296148,0.249326685 22.2318963,0.251086638 22.2336074,0.251086638 C22.7743185,0.465214261 23.2317556,0.860910376 23.5562963,1.35281726 C23.8811222,1.84677742 24.0721963,2.43841498 24.0721963,3.04677209 C24.0721963,3.15882243 24.0662074,3.2711661 24.0533741,3.38350977 L24.0522333,3.38585638 C24.0522333,3.38761633 24.0522333,3.38996293 24.051663,3.39172289 C23.9880667,4.17783526 23.6010704,4.86773686 23.0529444,5.35964374 C22.5013963,5.8536039 21.7872926,6.15191595 21.0543667,6.15191595 C20.9368704,6.15191595 20.8179481,6.14516946 20.7001667,6.12903656 C19.9732296,6.07183808 19.2953444,5.71016773 18.7974111,5.17191542 C18.2977667,4.63454308 17.9757926,3.91648223 17.9757926,3.14151623 C17.9757926,3.10397056 17.9792148,3.06554492 17.9803556,3.02829258 C17.2979074,2.71590091 16.5732519,2.45660116 15.8531593,2.45718781 C15.7490667,2.45718781 15.6449741,2.46305432 15.5405963,2.47390736 L15.5394556,2.47390736 C15.0001704,2.52729261 14.4991,2.87693662 14.2561222,3.37969654 L14.2561222,3.38028319 L14.2561222,3.38204315 C13.8873778,4.12063678 13.8138,4.98389376 13.8026778,5.84099091 C15.8697,5.97973387 17.9489852,6.48982694 19.7727444,7.56809152 L19.7755963,7.56809152 L19.8018333,7.5839311 C19.8363407,7.60505053 19.9005074,7.64112957 19.9584,7.67280873 C20.0835963,7.56838484 20.2162074,7.46073438 20.3676407,7.36804352 C20.9203296,6.98936028 21.5754,6.80104531 22.2307556,6.80104531 C22.5216444,6.80104531 22.8128185,6.83917762 23.0948667,6.9136823 L23.0960074,6.9136823 L23.1077,6.91720221 C23.1116926,6.91778886 23.1148296,6.91925549 23.1182519,6.91925549 L23.1182519,6.91984214 C23.7855852,7.09437082 24.3893222,7.4886003 24.8439074,8.02010613 C25.2984926,8.55249193 25.6036407,9.22596731 25.6632444,9.95722781 L25.6632444,9.95869443 L25.6615333,9.95869443 Z M19.5731148,3.00101331 C19.5731148,3.02975921 19.5736852,3.05938508 19.576537,3.08930429 L19.576537,3.09106424 L19.576537,3.09458414 C19.5899407,3.46388096 19.7596259,3.80765846 20.0171481,4.06167836 C20.2760963,4.31569825 20.6197444,4.47292072 20.9685259,4.47438735 L20.9733741,4.47438735 L20.9782222,4.47438735 C21.0033185,4.47644063 21.0289852,4.47644063 21.0535111,4.47644063 C21.4054296,4.47702728 21.7547815,4.32097811 22.0171519,4.06783819 C22.2800926,3.81352497 22.4532,3.46769419 22.4671741,3.0951708 L22.4677444,3.09341084 L22.4677444,3.09106424 C22.4700259,3.06261166 22.4711667,3.03562572 22.4711667,3.00658649 C22.4711667,2.62321005 22.2969185,2.25772646 22.0239963,1.98698701 C21.7522148,1.71654089 21.3863222,1.54905203 21.0252778,1.549932 C20.9089222,1.549932 20.7937074,1.56635823 20.6804889,1.60243727 L20.6759259,1.60273059 L20.6725037,1.60419722 C20.3750556,1.68368843 20.0961444,1.87229674 19.8959444,2.12279673 C19.6951741,2.37212341 19.5731148,2.68040852 19.5731148,3.00101331 Z M4.31485185,8.69944801 C4.03879259,8.56715821 3.75303704,8.47270739 3.47041852,8.4738807 C3.42307778,8.4738807 3.37516667,8.47681395 3.32782593,8.48209381 L3.32126667,8.48209381 L3.31470741,8.48297379 C2.90945926,8.49441348 2.49993333,8.6762753 2.19278889,8.96784086 C1.88535926,9.25823311 1.68202222,9.65040932 1.66633704,10.0827711 L1.66633704,10.0868777 L1.66576667,10.0903976 C1.66291481,10.1253033 1.66205926,10.1602091 1.66205926,10.1936482 C1.66205926,10.4602811 1.74134074,10.7181142 1.87623333,10.9527746 C1.97633333,11.1273033 2.10723333,11.2868724 2.25524444,11.425322 C2.72922222,10.3582038 3.46956296,9.4524146 4.31485185,8.69944801 Z M22.3217296,13.9200555 C22.3217296,12.9688008 21.988063,12.0131463 21.4479222,11.2437535 C20.3707778,9.70203461 18.6995926,8.69651476 16.9613889,8.13596971 L16.9491259,8.13156982 C16.6154593,8.02626597 16.2783704,7.93298845 15.9387148,7.85320391 C14.9228852,7.61531692 13.8811037,7.49681342 12.8407481,7.49681342 C11.4433407,7.49681342 10.0462185,7.70947441 8.7087,8.13391643 C6.9704963,8.70120797 5.29389259,9.69968801 4.21902963,11.2463934 L4.21902963,11.2475667 C3.67432593,12.0201861 3.35548889,12.9787739 3.35548889,13.9335484 C3.35548889,14.2849524 3.39798148,14.6363564 3.48838519,14.9783739 L3.48952593,14.9789606 C3.68516296,15.7465934 4.06788148,16.4318018 4.56296296,17.0284259 C5.05804444,17.6265166 5.66548889,18.1366097 6.30401852,18.5528386 C6.44547037,18.6431828 6.58777778,18.7291272 6.73293704,18.8130183 C8.58863704,19.8783766 10.7249593,20.3456441 12.8464519,20.3456441 C13.2052148,20.3456441 13.5659741,20.3321511 13.9224556,20.3057518 C16.0584926,20.1241834 18.2036556,19.4756406 19.9375815,18.150396 L19.9381519,18.1489294 C20.4902704,17.7294739 21.0016074,17.2214341 21.4057148,16.6435828 C21.8118185,16.0654383 22.1092667,15.4195355 22.2413074,14.7176075 L22.2413074,14.7155543 L22.2418778,14.7149676 C22.2957778,14.4530279 22.3217296,14.1869817 22.3217296,13.9200555 Z M24.0080296,10.1341031 C24.0074593,9.90325591 23.9561259,9.67328871 23.843763,9.45886776 L23.8409111,9.45622783 L23.8397704,9.45270793 C23.6894778,9.13415642 23.4533444,8.8936295 23.1684444,8.72966054 C22.8838296,8.56451828 22.5507333,8.48062718 22.2164963,8.48062718 C21.9142,8.48062718 21.6139,8.55014533 21.3469667,8.68800832 C22.1953926,9.44566812 22.9394407,10.3561505 23.4205481,11.4276686 C23.5754037,11.289219 23.7074444,11.1196768 23.8064037,10.9313618 C23.9350222,10.6846751 24.0080296,10.4074825 24.0080296,10.1341031 Z" id="Shape"></path>
            </g>
        </g>
    </g>
</svg>