<svg xmlns="http://www.w3.org/2000/svg" width="59" height="66" viewBox="0 0 59 66">
    <g fill="#4DA1FF" fill-rule="nonzero">
        <path d="M58.04 11.424C48.442 8.924 38.79 5.03 30.125.164a1.278 1.278 0 0 0-1.252 0C19.96 5.169 10.83 8.852.961 11.424c-.566.148-.961.66-.961 1.248v14.23C0 41.538 7.092 51.22 13.041 56.763 19.423 62.711 26.824 66 29.5 66s10.077-3.29 16.459-9.237C51.908 51.22 59 41.538 59 26.903V12.671c0-.588-.395-1.1-.96-1.248zM44.214 54.872c-3.535 3.294-6.97 5.374-9.229 6.538-2.862 1.476-4.85 2.012-5.486 2.012-.637 0-2.624-.536-5.487-2.012-2.258-1.164-5.693-3.244-9.228-6.538-5.575-5.195-12.22-14.265-12.22-27.97V13.665C12.052 11.113 20.881 7.54 29.5 2.763a122.087 122.087 0 0 0 26.935 10.902v13.237c0 13.705-6.646 22.775-12.22 27.97z"/>
        <path d="M54.076 14.676A123.665 123.665 0 0 1 30.603 5.15c-.376-.2-.828-.2-1.204 0A122.192 122.192 0 0 1 5.926 14.68c-.548.158-.926.66-.926 1.23v10.727c0 5.008.95 9.76 2.822 14.125 1.862 4.343 4.64 8.307 8.257 11.781 2.587 2.485 5.573 4.675 8.637 6.332.549.297 3.372 1.795 5.051 2.105a1.29 1.29 0 0 0 .466 0c1.679-.31 4.502-1.808 5.051-2.105 3.064-1.657 6.05-3.847 8.637-6.332 3.616-3.474 6.395-7.438 8.257-11.781C54.051 36.396 55 31.644 55 26.636v-10.73c0-.569-.377-1.07-.924-1.23zm-1.64 11.96c0 9.403-3.463 17.497-10.292 24.058-2.423 2.328-5.217 4.377-8.08 5.926C32.76 57.326 31 58.148 30 58.406c-1-.258-2.76-1.08-4.064-1.786-2.863-1.55-5.657-3.599-8.08-5.926-6.83-6.56-10.292-14.655-10.292-24.058V16.87a124.786 124.786 0 0 0 22.438-9.138 126.282 126.282 0 0 0 22.434 9.134v9.771z"/>
        <path d="M19.618 46.517l-.03-.032a1.49 1.49 0 0 0-2.206 1.998l.03.032a1.485 1.485 0 0 0 2.095.103c.611-.55.66-1.49.11-2.101z"/>
        <path d="M25.415 51.646a32.738 32.738 0 0 1-4.325-3.321 1.24 1.24 0 0 0-1.77.1 1.29 1.29 0 0 0 .098 1.801 35.254 35.254 0 0 0 4.658 3.577c.208.133.44.197.668.197.416 0 .824-.21 1.062-.595a1.288 1.288 0 0 0-.391-1.759zM36.26 27.19v-4.293c0-3.803-3.033-6.897-6.76-6.897s-6.76 3.094-6.76 6.897v4.292c-1.52.056-2.74 1.335-2.74 2.9v10.009c0 1.6 1.276 2.902 2.844 2.902h13.312C37.724 43 39 41.698 39 40.098v-10.01c0-1.564-1.22-2.843-2.74-2.899zm-10.964-4.293c0-2.365 1.886-4.29 4.204-4.29 2.318 0 4.203 1.925 4.203 4.29v4.29h-8.407v-4.29zm11.148 17.201c0 .16-.132.294-.288.294H22.844a.295.295 0 0 1-.289-.294v-10.01c0-.159.132-.294.289-.294h13.312c.156 0 .288.135.288.295v10.01z"/>
        <path d="M30 32c-1.102 0-2 .866-2 1.928 0 .522.218.996.57 1.344v1.35c0 .76.64 1.378 1.43 1.378.79 0 1.43-.617 1.43-1.379v-1.35c.352-.347.57-.821.57-1.343C32 32.866 31.102 32 30 32z"/>
    </g>
</svg>
