<?xml version="1.0" encoding="UTF-8"?>
<svg width="130px" height="18px" viewBox="0 0 130 18" version="1.1" xmlns="http://www.w3.org/2000/svg" xmlns:xlink="http://www.w3.org/1999/xlink">
    <!-- Generator: Sketch 47.1 (45422) - http://www.bohemiancoding.com/sketch -->
    <title>logo</title>
    <desc>Created with Sketch.</desc>
    <defs></defs>
    <g id="Page-1" stroke="none" stroke-width="1" fill="none" fill-rule="evenodd">
        <g id="dashboard-005i" transform="translate(-30.000000, -20.000000)">
            <g id="header" transform="translate(-28.000000, -21.000000)">
                <g id="logo" transform="translate(58.000000, 41.000000)">
                    <path d="M27.7339694,9.2558695 L31.8897886,15.0761142 C32.0215888,15.2607341 32.0359998,15.4854937 31.9285781,15.6845033 C31.8210064,15.8833964 31.6225555,16 31.3909895,16 L30.291944,16 C30.0870082,16 29.9108643,15.9107486 29.7940155,15.7476551 L25.3143101,9.50334984 L21.1496341,9.50334984 L21.1496341,15.4112729 C21.1496341,15.73545 20.8769668,16 20.5428428,16 L19.6067913,16 C19.2726673,16 19,15.73545 19,15.4112729 L19,1.58872706 C19,1.26454996 19.2726673,1 19.6067913,1 L25.9160575,1 C28.6243263,1 30.8580543,2.42936207 30.8580543,5.22205068 C30.8580543,7.29944655 29.6226752,8.72604136 27.7339694,9.2558695 Z M21.1496341,3.02650743 L21.1496341,7.47681328 L25.8346956,7.47681328 C27.4060602,7.47681328 28.7082401,6.92971162 28.7082401,5.24188756 C28.7082401,3.58616371 27.3684416,3.02650743 25.8346956,3.02650743 L21.1496341,3.02650743 Z" id="Fill-1" fill="#0067AF"></path>
                    <path d="M49.1287939,12.6836676 L41.8914602,12.6836676 L40.1595511,16.6322823 C40.0591915,16.8613138 39.8504543,17 39.6064021,17 L38.6091122,17 C38.3968915,17 38.2143704,16.8977549 38.0992961,16.714097 C37.9839516,16.5306554 37.9685464,16.3172017 38.0559631,16.1181514 L44.5293686,1.36747041 C44.6297282,1.13862434 44.8384654,1 45.0824275,1 L45.9578565,1 C46.2023892,1 46.4113966,1.13933524 46.5115761,1.36876857 L52.9447115,16.1193877 C53.0314677,16.3187162 53.015702,16.5315208 52.9003876,16.7147151 C52.7852833,16.8980022 52.6029423,17 52.3909919,17 L51.413852,17 C51.1698899,17 50.9610926,16.8613138 50.860733,16.6322823 L49.1287939,12.6836676 Z M45.5085505,4.39402463 L42.7680903,10.5962663 L48.2339657,10.5962663 L45.5085505,4.39402463 Z" id="Fill-2" fill="#0067AF"></path>
                    <path d="M63.559322,8.94537298 L62.7916156,9.60050757 C62.2960193,10.0031686 61.7196009,10.1497092 61.0963704,9.81309708 C59.4247985,8.91052508 58.1291491,7.36766648 58.0012475,5.02999228 C58.000505,5.01465226 58,4.99913858 58,4.98388539 C58,3.50814661 58.6504089,2.30010563 59.8217805,1.38120954 C61.1563112,0.334412417 62.8770714,0 64.5541087,0 C66.444533,0 68.6042754,0.662515167 70.3442238,1.6632054 C70.9622563,2.01863075 71.3540105,2.38922245 70.5363732,3.07772882 L70.0809355,3.46137402 C69.0456338,4.33326597 68.4707599,3.72522235 67.9740646,3.47827698 C66.9469313,2.96762801 65.7987281,2.78655789 64.6027029,2.78655789 C63.1674787,2.78655789 60.9088547,3.22091198 60.9088547,5.00759006 C60.9088547,5.03343655 60.907518,5.05902254 60.9052309,5.08469537 C60.890914,5.24017948 60.9116468,5.38825408 60.9576866,5.52857184 C61.3277575,6.65299525 62.4103466,7.22344136 63.4667968,7.73507441 C64.0683738,8.02647689 64.0405123,8.53269752 63.559322,8.94537298" id="Fill-3" fill="#0067AF"></path>
                    <path d="M66.1373127,8.03317148 C66.403634,7.80967969 66.6699554,7.58612911 66.9362767,7.3627255 C67.4760901,6.90945134 68.2914703,6.91453671 68.9098253,7.19326211 C70.5451934,7.92999429 72.116117,8.93766213 72.7454263,10.8434713 C72.9125485,11.3495098 73,11.8806225 73,12.405474 C73,14.1523726 72.2705761,15.5961478 70.7800248,16.6072255 C69.3008551,17.6103665 67.5784017,18 65.7880558,18 C63.6300229,18 60.3917226,17.3907255 58.5096838,15.8438025 C57.9136647,15.3535197 57.7632334,15.0357281 58.478377,14.4401811 L58.9906978,14.0134802 C59.9082371,13.2496457 60.2553275,13.6187613 60.8784425,13.9613919 C61.3567408,14.2243027 61.8692446,14.4375943 62.376256,14.6220199 C63.4322958,15.0062153 64.5624223,15.1688002 65.6881548,15.1688002 C66.8196849,15.1688002 67.9561276,14.9662084 68.9020444,14.3356224 C69.6131297,13.8614188 69.9860955,13.2462358 69.9860955,12.405474 C69.9860955,11.8265353 69.7294469,11.2231692 69.2967968,10.8249817 C68.7204894,10.2327857 67.2026896,9.67674593 66.2964708,9.25272 C65.6543459,8.95224215 65.7210178,8.42180557 66.1373127,8.03317148" id="Fill-4" fill="#4DA1FF"></path>
                    <path d="M4.95682954,3.02650743 L0.58880996,3.02650743 C0.264587208,3.02650743 0,2.76204486 0,2.43778037 L0,1.58872706 C0,1.26454996 0.264587208,1 0.58880996,1 L11.4112774,1 C11.7355002,1 12,1.26454996 12,1.58872706 L12,2.43778037 C12,2.76204486 11.7355002,3.02650743 11.4112774,3.02650743 L7.0429374,3.02650743 L7.0429374,15.4112729 C7.0429374,15.73545 6.77843759,16 6.45421484,16 L5.5456395,16 C5.22141674,16 4.95682954,15.73545 4.95682954,15.4112729 L4.95682954,3.02650743 Z" id="Fill-5" fill="#0067AF"></path>
                    <path d="M105.218346,9.88284445 L109.39816,15.8964062 C109.550459,16.1155349 109.567487,16.3871675 109.443291,16.6231146 C109.318574,16.8601931 109.086628,17 108.818172,17 L107.694953,17 C107.457699,17 107.251494,16.8927903 107.116008,16.6987057 L102.5637,10.1800717 L98.4378225,10.1800717 L98.4378225,16.2967762 C98.4378225,16.6842419 98.1209831,17 97.7322588,17 L96.7757577,17 C96.3870028,17 96.070194,16.6842419 96.070194,16.2967762 L96.070194,1.78612328 C96.070194,1.39890222 96.3871869,1.08286892 96.7757577,1.08286892 L103.223273,1.08286892 C106.025494,1.08286892 108.359159,2.61028675 108.359159,5.60032567 C108.359159,7.69547202 107.19811,9.26698469 105.218346,9.88284445 Z M82.2202267,3.38087593 L77.7055637,3.38087593 C77.3168088,3.38087593 77,3.06499553 77,2.67762157 L77,1.78612328 C77,1.39890222 77.3169928,1.08286892 77.7055637,1.08286892 L89.1030091,1.08286892 C89.4915186,1.08286892 89.8086035,1.39890222 89.8086035,1.78612328 L89.8086035,2.67762157 C89.8086035,3.06481205 89.4915186,3.38087593 89.1030091,3.38087593 L84.5881927,3.38087593 L84.5881927,16.2967762 C84.5881927,16.6840584 84.2711999,17 83.882629,17 L82.9257904,17 C82.5370354,17 82.2202267,16.6842419 82.2202267,16.2967762 L82.2202267,3.38087593 Z M125.904246,12.7298657 L118.62059,12.7298657 L116.873755,16.5861141 C116.757291,16.8431301 116.513594,17 116.230688,17 L115.21169,17 C114.965815,17 114.752492,16.8840141 114.619,16.6782484 C114.485754,16.4725439 114.467407,16.2304505 114.568561,16.0072549 L121.182274,1.41391647 C121.298707,1.15690052 121.542404,1 121.825311,1 L122.719806,1 C123.003326,1 123.247422,1.15760383 123.363456,1.41529253 L129.936026,16.0086309 C130.036659,16.2318571 130.017882,16.4734307 129.884544,16.6789518 C129.751144,16.884381 129.537975,17 129.292284,17 L128.293965,17 C128.010966,17 127.767393,16.8431301 127.650837,16.5861141 L125.904246,12.7298657 Z M98.4378225,3.38087593 L98.4378225,7.88218701 L103.140129,7.88218701 C104.676525,7.88218701 105.991162,7.35662684 105.991162,5.62130282 C105.991162,3.92071646 104.639064,3.38087593 103.140129,3.38087593 L98.4378225,3.38087593 Z M122.260608,4.64987119 L119.593874,10.4940256 L124.912616,10.4940256 L122.260608,4.64987119 Z" id="Fill-6" fill="#4DA1FF"></path>
                </g>
            </g>
        </g>
    </g>
</svg>